<svg width="120" height="120" viewBox="0 0 120 120" fill="none" xmlns="http://www.w3.org/2000/svg">
<g clip-path="url(#clip0_203_105)">
<path d="M18.66 33.48C19.7646 33.48 20.66 32.5845 20.66 31.48C20.66 30.3754 19.7646 29.48 18.66 29.48C17.5555 29.48 16.66 30.3754 16.66 31.48C16.66 32.5845 17.5555 33.48 18.66 33.48Z" fill="#2E2E2E"/>
<path d="M32 33.48C33.1046 33.48 34 32.5845 34 31.48C34 30.3754 33.1046 29.48 32 29.48C30.8954 29.48 30 30.3754 30 31.48C30 32.5845 30.8954 33.48 32 33.48Z" fill="#2E2E2E"/>
<path d="M25.34 33.48C26.4445 33.48 27.34 32.5845 27.34 31.48C27.34 30.3754 26.4445 29.48 25.34 29.48C24.2354 29.48 23.34 30.3754 23.34 31.48C23.34 32.5845 24.2354 33.48 25.34 33.48Z" fill="#2E2E2E"/>
<path d="M40 60.5L46 54.5C46.3766 54.1234 46.5882 53.6126 46.5882 53.08C46.5882 52.5474 46.3766 52.0366 46 51.66C45.6234 51.2834 45.1126 51.0718 44.58 51.0718C44.0474 51.0718 43.5366 51.2834 43.16 51.66L35.72 59.12C35.3475 59.4947 35.1384 60.0016 35.1384 60.53C35.1384 61.0583 35.3475 61.5652 35.72 61.94L43.16 69.4C43.3459 69.5874 43.5671 69.7362 43.8109 69.8377C44.0546 69.9393 44.316 69.9916 44.58 69.9916C44.844 69.9916 45.1054 69.9393 45.3492 69.8377C45.5929 69.7362 45.8141 69.5874 46 69.4C46.3725 69.0252 46.5816 68.5183 46.5816 67.99C46.5816 67.4616 46.3725 66.9547 46 66.58L40 60.5Z" fill="#2E2E2E"/>
<path d="M68.64 69.36C69.0147 69.7325 69.5216 69.9416 70.05 69.9416C70.5783 69.9416 71.0852 69.7325 71.46 69.36L78.9199 62C79.2925 61.6253 79.5015 61.1184 79.5015 60.59C79.5015 60.0617 79.2925 59.5548 78.9199 59.18L71.46 51.72C71.0833 51.3461 70.5736 51.1371 70.0429 51.1389C69.5122 51.1408 69.0039 51.3534 68.6299 51.73C68.256 52.1066 68.047 52.6164 68.0488 53.1471C68.0507 53.6778 68.2633 54.1861 68.64 54.56L74.64 60.56L68.64 66.56C68.2735 66.9339 68.0682 67.4365 68.0682 67.96C68.0682 68.4835 68.2735 68.9862 68.64 69.36Z" fill="#2E2E2E"/>
<path d="M62 52.2999C61.7718 52.1677 61.5196 52.0819 61.258 52.0476C60.9965 52.0132 60.7307 52.0309 60.476 52.0997C60.2214 52.1685 59.9828 52.287 59.7741 52.4483C59.5654 52.6097 59.3907 52.8108 59.26 53.0399L51.88 65.9999C51.7353 66.2276 51.6382 66.4821 51.5944 66.7483C51.5506 67.0145 51.5611 67.2867 51.6253 67.5487C51.6895 67.8107 51.806 68.057 51.9678 68.2728C52.1296 68.4886 52.3335 68.6694 52.567 68.8044C52.8005 68.9394 53.0589 69.0258 53.3267 69.0583C53.5945 69.0908 53.8661 69.0688 54.1251 68.9937C54.3842 68.9185 54.6253 68.7918 54.8341 68.621C55.0429 68.4502 55.215 68.2389 55.34 67.9999L62.8 55.0999C62.9396 54.8656 63.0297 54.6052 63.0649 54.3347C63.1001 54.0642 63.0796 53.7894 63.0047 53.5272C62.9298 53.2649 62.802 53.0208 62.6292 52.8097C62.4565 52.5987 62.2423 52.4252 62 52.2999Z" fill="#2E2E2E"/>
<path d="M111.72 80C111.602 79.9991 111.487 79.9622 111.391 79.8943C111.294 79.8264 111.221 79.7307 111.18 79.62C110.384 77.5265 109.256 75.5749 107.84 73.84C107.773 73.743 107.737 73.6279 107.737 73.51C107.737 73.3921 107.773 73.277 107.84 73.18C108.449 72.1242 108.614 70.8699 108.299 69.6924C107.984 68.5149 107.215 67.5106 106.16 66.9L104.66 66V29.48C104.66 27.8887 104.028 26.3626 102.903 25.2373C101.777 24.1121 100.251 23.48 98.66 23.48H16C14.4087 23.48 12.8826 24.1121 11.7574 25.2373C10.6321 26.3626 10 27.8887 10 29.48V80.16C10.0053 81.3943 10.4979 82.5765 11.3707 83.4493C12.2435 84.3221 13.4257 84.8147 14.66 84.82H42L40 92.22H37.34C35.392 92.2213 33.5013 92.8794 31.9735 94.0879C30.4457 95.2963 29.3699 96.9846 28.92 98.88H24C23.4696 98.88 22.9609 99.0907 22.5858 99.4658C22.2107 99.8408 22 100.35 22 100.88C22 101.41 22.2107 101.919 22.5858 102.294C22.9609 102.669 23.4696 102.88 24 102.88H74.94C74.9061 103.358 74.9535 103.838 75.08 104.3C75.23 104.887 75.4968 105.437 75.8645 105.918C76.2322 106.399 76.6933 106.801 77.22 107.1L81.44 109.54C81.964 109.841 82.542 110.035 83.1412 110.113C83.7404 110.19 84.349 110.149 84.9321 109.991C85.5153 109.833 86.0617 109.562 86.54 109.193C87.0184 108.824 87.4193 108.364 87.72 107.84C87.7848 107.738 87.878 107.657 87.9882 107.607C88.0983 107.558 88.2206 107.541 88.34 107.56C90.537 107.94 92.783 107.94 94.98 107.56C95.1016 107.54 95.2264 107.558 95.3373 107.612C95.4483 107.666 95.54 107.752 95.6 107.86C96.0076 108.558 96.592 109.136 97.2942 109.536C97.9964 109.937 98.7917 110.145 99.6 110.14C100.406 110.148 101.2 109.941 101.9 109.54L106.12 107.1C106.644 106.798 107.103 106.395 107.47 105.914C107.837 105.433 108.106 104.885 108.26 104.3C108.419 103.719 108.461 103.111 108.382 102.514C108.303 101.916 108.105 101.34 107.8 100.82C107.731 100.72 107.694 100.601 107.694 100.48C107.694 100.359 107.731 100.24 107.8 100.14C109.212 98.4094 110.339 96.4651 111.14 94.38C111.178 94.2676 111.251 94.1702 111.348 94.1019C111.445 94.0336 111.561 93.9979 111.68 94C112.898 93.9947 114.065 93.5084 114.927 92.6469C115.788 91.7853 116.275 90.6184 116.28 89.4V84.52C116.259 83.3208 115.771 82.1772 114.919 81.3328C114.067 80.4885 112.919 80.0102 111.72 80ZM14 29.48C14 28.9495 14.2107 28.4408 14.5858 28.0658C14.9609 27.6907 15.4696 27.48 16 27.48H98.66C99.1904 27.48 99.6991 27.6907 100.074 28.0658C100.449 28.4408 100.66 28.9495 100.66 29.48V35.48H14V29.48ZM14.66 80.82C14.5733 80.82 14.4875 80.8029 14.4074 80.7697C14.3274 80.7366 14.2546 80.688 14.1933 80.6267C14.132 80.5654 14.0834 80.4926 14.0502 80.4126C14.0171 80.3325 14 80.2467 14 80.16V39.48H100.66V64C99.7136 63.7486 98.7115 63.8072 97.8008 64.1672C96.8901 64.5271 96.1188 65.1695 95.6 66C95.5377 66.0986 95.4472 66.1762 95.3401 66.2226C95.2331 66.269 95.1146 66.282 95 66.26C92.8013 65.8999 90.5587 65.8999 88.36 66.26C88.2454 66.285 88.1258 66.2733 88.0181 66.2267C87.9105 66.18 87.8202 66.1007 87.76 66C87.4596 65.4757 87.0584 65.016 86.5795 64.6474C86.1006 64.2789 85.5535 64.0088 84.9697 63.8526C84.386 63.6964 83.7771 63.6573 83.1782 63.7375C82.5792 63.8178 82.0021 64.0157 81.48 64.32L77.26 66.76C76.7346 67.0555 76.2743 67.4541 75.9066 67.9318C75.5388 68.4095 75.2713 68.9565 75.12 69.54C74.8002 70.7191 74.9583 71.9767 75.56 73.04C75.633 73.1345 75.6726 73.2506 75.6726 73.37C75.6726 73.4894 75.633 73.6055 75.56 73.7C74.1436 75.4349 73.0158 77.3865 72.22 79.48C72.1793 79.5907 72.1058 79.6864 72.0094 79.7543C71.9129 79.8222 71.798 79.8591 71.68 79.86C70.7004 79.8614 69.7471 80.1768 68.96 80.76L14.66 80.82ZM68 92.22H44L46 84.82H67V89.4C67.0128 90.4246 67.3644 91.4162 68 92.22ZM37.36 96.22H72.96C73.4171 97.142 73.9384 98.0309 74.52 98.88H33.14C33.5176 98.0853 34.1124 97.4138 34.8557 96.9431C35.5989 96.4724 36.4602 96.2217 37.34 96.22H37.36ZM112.32 89.4C112.32 89.5591 112.257 89.7117 112.144 89.8242C112.032 89.9368 111.879 90 111.72 90C110.788 90.0023 109.879 90.2862 109.112 90.8144C108.344 91.3427 107.755 92.0906 107.42 92.96C106.781 94.6462 105.876 96.2194 104.74 97.62C104.154 98.3435 103.801 99.2271 103.726 100.155C103.651 101.083 103.858 102.012 104.32 102.82C104.352 102.889 104.369 102.964 104.369 103.04C104.369 103.116 104.352 103.191 104.32 103.26C104.303 103.339 104.269 103.414 104.22 103.48C104.172 103.545 104.111 103.6 104.04 103.64L99.88 106C99.8105 106.039 99.7341 106.063 99.6551 106.072C99.5761 106.081 99.4961 106.074 99.4198 106.051C99.3435 106.029 99.2724 105.992 99.2106 105.942C99.1489 105.892 99.0977 105.83 99.06 105.76C98.5871 104.954 97.881 104.31 97.0347 103.914C96.1885 103.518 95.2419 103.387 94.32 103.54C92.5593 103.84 90.7607 103.84 89 103.54C88.076 103.389 87.128 103.523 86.2815 103.923C85.435 104.323 84.7301 104.97 84.26 105.78C84.177 105.914 84.0459 106.011 83.8936 106.052C83.7412 106.093 83.579 106.075 83.44 106L79.22 103.56C79.1493 103.52 79.0878 103.465 79.0396 103.4C78.9914 103.334 78.9574 103.259 78.94 103.18C78.9078 103.111 78.8912 103.036 78.8912 102.96C78.8912 102.884 78.9078 102.809 78.94 102.74C79.3967 101.93 79.6007 101.002 79.5259 100.076C79.451 99.149 79.1007 98.266 78.52 97.54C77.3738 96.143 76.462 94.5692 75.82 92.88C75.4845 92.0335 74.9033 91.3068 74.1512 90.7935C73.3991 90.2802 72.5106 90.0038 71.6 90C71.4409 90 71.2883 89.9368 71.1757 89.8242C71.0632 89.7117 71 89.5591 71 89.4V84.52C70.9972 84.4404 71.0108 84.3612 71.04 84.2871C71.0691 84.213 71.1132 84.1458 71.1695 84.0895C71.2258 84.0332 71.2931 83.9891 71.3671 83.96C71.4412 83.9308 71.5205 83.9172 71.6 83.92C72.5288 83.9164 73.4348 83.6317 74.1988 83.1034C74.9627 82.575 75.5488 81.8278 75.88 80.96C76.5174 79.2686 77.4297 77.6941 78.58 76.3C79.1607 75.574 79.511 74.6909 79.5859 73.7643C79.6607 72.8376 79.4567 71.9098 79 71.1C78.9674 71.0277 78.9506 70.9493 78.9506 70.87C78.9506 70.7907 78.9674 70.7123 79 70.64C79.0162 70.5626 79.0499 70.49 79.0984 70.4276C79.1469 70.3653 79.209 70.3148 79.28 70.28L83.5 67.84C83.5981 67.8127 83.7019 67.8127 83.8 67.84C83.9001 67.8412 83.9983 67.8675 84.0856 67.9164C84.1729 67.9653 84.2466 68.0353 84.3 68.12C84.7721 68.9277 85.4774 69.5738 86.3233 69.9736C87.1692 70.3733 88.1162 70.508 89.04 70.36C90.8007 70.0601 92.5993 70.0601 94.36 70.36C95.2899 70.4856 96.2361 70.3275 97.0747 69.9064C97.9133 69.4853 98.6053 68.8208 99.06 68C99.0991 67.934 99.1509 67.8765 99.2124 67.8306C99.2739 67.7848 99.3439 67.7516 99.4183 67.733C99.4927 67.7144 99.57 67.7108 99.6458 67.7223C99.7217 67.7338 99.7945 67.7602 99.86 67.8L104.08 70.24C104.151 70.2748 104.213 70.3253 104.262 70.3876C104.31 70.45 104.344 70.5226 104.36 70.6C104.393 70.6723 104.409 70.7507 104.409 70.83C104.409 70.9093 104.393 70.9877 104.36 71.06C103.9 71.8651 103.693 72.7906 103.768 73.715C103.843 74.6394 104.196 75.5195 104.78 76.24C105.916 77.6476 106.821 79.2275 107.46 80.92C107.775 81.804 108.351 82.5716 109.112 83.1214C109.872 83.6713 110.782 83.9777 111.72 84C111.8 83.9972 111.879 84.0108 111.953 84.04C112.027 84.0691 112.094 84.1132 112.15 84.1695C112.207 84.2258 112.251 84.293 112.28 84.3671C112.309 84.4412 112.323 84.5204 112.32 84.6V89.4Z" fill="#2E2E2E"/>
<path d="M91.66 77.8799C89.8642 77.8799 88.1086 78.4124 86.6154 79.4101C85.1222 80.4079 83.9584 81.826 83.2712 83.4851C82.5839 85.1443 82.4041 86.97 82.7545 88.7313C83.1048 90.4927 83.9696 92.1106 85.2395 93.3804C86.5094 94.6503 88.1273 95.5151 89.8886 95.8654C91.6499 96.2158 93.4756 96.036 95.1348 95.3487C96.7939 94.6615 98.212 93.4977 99.2098 92.0045C100.207 90.5113 100.74 88.7557 100.74 86.9599C100.74 84.5517 99.7834 82.2422 98.0805 80.5394C96.3777 78.8365 94.0682 77.8799 91.66 77.8799ZM91.66 92.0399C90.6553 92.0399 89.6731 91.742 88.8377 91.1838C88.0023 90.6256 87.3512 89.8322 86.9667 88.9039C86.5822 87.9757 86.4816 86.9542 86.6776 85.9688C86.8736 84.9834 87.3575 84.0782 88.0679 83.3678C88.7784 82.6573 89.6835 82.1735 90.669 81.9775C91.6544 81.7815 92.6758 81.8821 93.6041 82.2666C94.5323 82.6511 95.3257 83.3022 95.8839 84.1376C96.4421 84.973 96.74 85.9552 96.74 86.9599C96.7295 88.3002 96.1896 89.5821 95.2381 90.5262C94.2865 91.4702 93.0004 91.9999 91.66 91.9999V92.0399Z" fill="#2E2E2E"/>
</g>
<defs>
<clipPath id="clip0_203_105">
<rect width="120" height="120" fill="white"/>
</clipPath>
</defs>
</svg>
