<svg width="120" height="120" viewBox="0 0 120 120" fill="none" xmlns="http://www.w3.org/2000/svg">
<g clip-path="url(#clip0_207_233)">
<path d="M94.5 32.7001C94.5 31.9201 94.44 31.2001 94.38 30.4201C93.24 20.0401 84.48 12.1801 74.04 12.2401H30.54V51.9001C22.68 57.9601 21.3 69.2401 27.36 77.0401C27.6 77.3401 27.78 77.5801 28.02 77.8801V106.26C28.02 106.86 28.5 107.28 29.04 107.28C29.34 107.28 29.58 107.16 29.82 106.98L42 94.0201L53.94 106.92C54.36 107.34 55.02 107.34 55.44 106.98C55.68 106.8 55.8 106.5 55.8 106.2V92.4601H94.56L94.5 32.7001ZM92.16 29.5201H72.96C72.96 24.4801 72.96 19.3801 72.96 14.3401H74.04C82.98 14.3401 90.6 20.7001 92.16 29.5201ZM41.52 50.2201C50.28 50.1601 57.36 57.4201 57.36 66.0601C57.36 74.7601 50.16 81.9601 41.52 81.9001C33.06 81.8401 25.98 74.8801 25.8 66.2401C25.68 57.5401 32.82 50.2201 41.52 50.2201ZM53.7 103.56L42.78 91.8001C42.6 91.5601 42.3 91.4401 42 91.4401C41.7 91.4401 41.46 91.5601 41.22 91.7401L30.06 103.56V79.8601C31.26 80.8201 35.46 83.9401 41.64 83.8801C48.24 83.8201 52.56 80.2201 53.64 79.2601C53.7 87.3601 53.7 95.4601 53.7 103.56ZM92.4 90.4201H55.74V77.2201C55.74 77.1601 55.74 77.1001 55.74 77.0401C58.02 74.1001 59.28 70.5601 59.46 66.9001H81.96V64.8001H59.46C59.22 60.9601 57.72 57.3601 55.2 54.4201H81.96V52.3201H53.1C47.34 47.4601 39.18 46.7401 32.64 50.4601V14.3401H70.86V31.6201H92.4C92.4 31.9801 92.46 32.3401 92.46 32.7601L92.4 90.4201Z" fill="black"/>
<path d="M81.96 40.3201H47.4V42.4201H81.96V40.3201Z" fill="black"/>
<path d="M64.68 26.52H47.4V28.62H64.68V26.52Z" fill="black"/>
</g>
<defs>
<clipPath id="clip0_207_233">
<rect width="120" height="120" fill="white"/>
</clipPath>
</defs>
</svg>
