<svg width="120" height="120" viewBox="0 0 120 120" fill="none" xmlns="http://www.w3.org/2000/svg">
<path d="M28.375 17.25C29.4105 17.25 30.25 16.4105 30.25 15.375C30.25 14.3395 29.4105 13.5 28.375 13.5C27.3395 13.5 26.5 14.3395 26.5 15.375C26.5 16.4105 27.3395 17.25 28.375 17.25Z" fill="#263238"/>
<path d="M20.875 17.25C21.9105 17.25 22.75 16.4105 22.75 15.375C22.75 14.3395 21.9105 13.5 20.875 13.5C19.8395 13.5 19 14.3395 19 15.375C19 16.4105 19.8395 17.25 20.875 17.25Z" fill="#263238"/>
<path d="M13.375 17.25C14.4105 17.25 15.25 16.4105 15.25 15.375C15.25 14.3395 14.4105 13.5 13.375 13.5C12.3395 13.5 11.5 14.3395 11.5 15.375C11.5 16.4105 12.3395 17.25 13.375 17.25Z" fill="#263238"/>
<path d="M114.625 24.75H5.875C4.84 24.75 4 23.91 4 22.875C4 21.84 4.84 21 5.875 21H114.625C115.66 21 116.5 21.84 116.5 22.875C116.5 23.91 115.66 24.75 114.625 24.75Z" fill="#263238"/>
<path d="M5.875 81C4.84 81 4 80.16 4 79.125V11.625C4 8.52375 6.52375 6 9.625 6H110.875C113.976 6 116.5 8.52375 116.5 11.625V45.375C116.5 46.41 115.66 47.25 114.625 47.25C113.59 47.25 112.75 46.41 112.75 45.375V11.625C112.75 10.5937 111.91 9.75 110.875 9.75H9.625C8.59 9.75 7.75 10.5937 7.75 11.625V79.125C7.75 80.16 6.91 81 5.875 81Z" fill="#263238"/>
<path d="M82.75 114.75H39.625C38.59 114.75 37.75 113.91 37.75 112.875C37.75 111.84 38.59 111 39.625 111H43.375C46.4763 111 49 108.476 49 105.375V101.625C49 100.59 49.84 99.75 50.875 99.75C51.91 99.75 52.75 100.59 52.75 101.625V105.375C52.75 107.486 52.0487 109.432 50.8712 111H69.6287C68.4512 109.432 67.75 107.486 67.75 105.375V94.125C67.75 93.09 68.59 92.25 69.625 92.25C70.66 92.25 71.5 93.09 71.5 94.125V105.375C71.5 108.476 74.0237 111 77.125 111H82.75C83.785 111 84.625 111.84 84.625 112.875C84.625 113.91 83.785 114.75 82.75 114.75Z" fill="#263238"/>
<path d="M69.625 96H9.625C6.52375 96 4 93.4763 4 90.375V79.125C4 78.09 4.84 77.25 5.875 77.25H58.375C59.41 77.25 60.25 78.09 60.25 79.125C60.25 80.16 59.41 81 58.375 81H7.75V90.375C7.75 91.4063 8.59 92.25 9.625 92.25H69.625C70.66 92.25 71.5 93.09 71.5 94.125C71.5 95.16 70.66 96 69.625 96Z" fill="#263238"/>
<path d="M69.625 51H65.875C64.84 51 64 50.16 64 49.125C64 48.09 64.84 47.25 65.875 47.25H69.625C70.66 47.25 71.5 48.09 71.5 49.125C71.5 50.16 70.66 51 69.625 51Z" fill="#263238"/>
<path d="M103.375 36H65.875C64.84 36 64 35.16 64 34.125C64 33.09 64.84 32.25 65.875 32.25H103.375C104.41 32.25 105.25 33.09 105.25 34.125C105.25 35.16 104.41 36 103.375 36Z" fill="#263238"/>
<path d="M103.375 43.5H65.875C64.84 43.5 64 42.66 64 41.625C64 40.59 64.84 39.75 65.875 39.75H103.375C104.41 39.75 105.25 40.59 105.25 41.625C105.25 42.66 104.41 43.5 103.375 43.5Z" fill="#263238"/>
<path d="M28.375 51H17.125C16.09 51 15.25 50.16 15.25 49.125C15.25 48.09 16.09 47.25 17.125 47.25H28.375C29.41 47.25 30.25 48.09 30.25 49.125C30.25 50.16 29.41 51 28.375 51Z" fill="#263238"/>
<path d="M54.625 36H17.125C16.09 36 15.25 35.16 15.25 34.125C15.25 33.09 16.09 32.25 17.125 32.25H54.625C55.66 32.25 56.5 33.09 56.5 34.125C56.5 35.16 55.66 36 54.625 36Z" fill="#263238"/>
<path d="M54.625 43.5H17.125C16.09 43.5 15.25 42.66 15.25 41.625C15.25 40.59 16.09 39.75 17.125 39.75H54.625C55.66 39.75 56.5 40.59 56.5 41.625C56.5 42.66 55.66 43.5 54.625 43.5Z" fill="#263238"/>
<path d="M90.25 99.75C75.775 99.75 64 87.9712 64 73.5C64 59.0288 75.775 47.25 90.25 47.25C95.32 47.25 100.236 48.6975 104.47 51.4312C105.34 51.9937 105.588 53.1525 105.025 54.0225C104.463 54.885 103.308 55.1475 102.434 54.5775C98.8113 52.2375 94.5963 51 90.25 51C77.8412 51 67.75 61.0912 67.75 73.5C67.75 85.9088 77.8412 96 90.25 96C102.659 96 112.75 85.9088 112.75 73.5C112.75 71.0925 112.371 68.7262 111.629 66.4612C111.306 65.475 111.843 64.4175 112.825 64.095C113.808 63.765 114.869 64.3087 115.191 65.2875C116.057 67.935 116.5 70.695 116.5 73.5C116.5 87.9712 104.725 99.75 90.25 99.75Z" fill="#263238"/>
<path d="M88.375 83.6212C88.36 83.6212 88.345 83.6212 88.33 83.6212C87.7862 83.6062 87.28 83.3625 86.9312 82.9462L77.5562 71.6962C76.8962 70.8975 77.005 69.7162 77.7962 69.0525C78.595 68.3925 79.7725 68.5012 80.44 69.2925L88.4387 78.8962L111.745 53.1525C112.45 52.3875 113.635 52.3425 114.392 53.0362C115.154 53.7375 115.206 54.9225 114.505 55.6875L89.755 83.0137C89.3987 83.4037 88.9037 83.6212 88.375 83.6212Z" fill="#263238"/>
</svg>
