<svg width="120" height="120" viewBox="0 0 120 120" fill="none" xmlns="http://www.w3.org/2000/svg">
<g clip-path="url(#clip0_204_153)">
<path d="M37.125 82.5469L30.9844 81.6094L29.3906 64.7344C28.9219 57.2344 22.5 51.5156 15 51.9844C7.50002 52.4531 1.78127 58.875 2.25002 66.4688L3.93752 84.1406C4.26565 89.4844 7.68752 94.125 12.6563 96C13.9688 96.6563 15.4219 96.9375 16.9219 96.8906L29.8125 97.5C31.125 97.5469 32.2031 96.5625 32.25 95.2969C32.2969 94.0313 31.3125 92.9063 30.0469 92.8594L17.0156 92.25C16.9219 92.25 16.875 92.25 16.7813 92.25C16.0313 92.2969 15.3281 92.1563 14.6719 91.8281C14.5781 91.7813 14.4844 91.7344 14.3906 91.7344C11.0625 90.5156 8.76565 87.4219 8.53127 83.8125L6.89065 66.0938C6.6094 61.1719 10.3594 56.9531 15.2813 56.625C20.25 56.3438 24.4219 60.0938 24.75 65.0625L26.4375 82.7344C26.4375 83.0156 26.4375 83.25 26.4375 83.5313C26.3906 84.7031 27.2344 85.6875 28.4063 85.875L36.4219 87.1406C37.4063 87.2813 38.1094 88.125 38.1094 89.1094V108.656C38.1094 109.922 39.1406 111 40.4531 111C41.7188 111 42.7969 109.969 42.7969 108.656V89.1094C42.7031 85.8282 40.3594 83.0625 37.125 82.5469Z" fill="black"/>
<path d="M16.6406 46.6406C23.3438 46.6406 28.8281 41.1563 28.8281 34.4531C28.8281 27.75 23.3438 22.2656 16.6406 22.2656C9.9375 22.2656 4.45312 27.75 4.45312 34.4531C4.45312 41.1563 9.9375 46.6406 16.6406 46.6406ZM16.6406 26.9063C20.8125 26.9063 24.1875 30.2813 24.1875 34.4531C24.1875 38.625 20.8125 42 16.6406 42C12.4688 42 9.09375 38.625 9.09375 34.4531C9.09375 30.2813 12.5156 26.9063 16.6406 26.9063Z" fill="black"/>
<path d="M105 51.9844C97.5469 51.5157 91.0781 57.2344 90.6094 64.6406L89.0156 81.6094L82.875 82.5469C79.6406 83.0625 77.25 85.8282 77.25 89.1094V108.656C77.25 109.922 78.2813 111 79.5938 111C80.9062 111 81.9375 109.969 81.9375 108.656V89.1094C81.9375 88.125 82.6406 87.3281 83.625 87.1406L91.6406 85.875C92.8125 85.6875 93.6562 84.7032 93.6094 83.5313C93.6094 83.25 93.6094 83.0157 93.6094 82.8282L95.2969 65.0157C95.5781 60.0938 99.7969 56.3438 104.766 56.625C109.687 56.9063 113.437 61.1719 113.156 66L111.469 83.8125C111.234 87.3282 108.984 90.4219 105.656 91.6407C105.562 91.6875 105.469 91.7344 105.375 91.7344C104.719 92.0625 104.016 92.2032 103.266 92.1563C103.172 92.1563 103.078 92.1563 103.031 92.1563L90 92.7656C88.7344 92.8125 87.7031 93.9375 87.7969 95.2032C87.8438 96.4688 88.9219 97.5 90.2344 97.4063L103.125 96.7969C104.578 96.8438 106.078 96.5625 107.391 95.9063C112.359 93.9844 115.781 89.3438 116.109 84.0938L117.797 66.2813C118.219 58.875 112.5 52.4063 105 51.9844Z" fill="black"/>
<path d="M103.359 46.6406C110.063 46.6406 115.547 41.1563 115.547 34.4531C115.547 27.75 110.063 22.2656 103.359 22.2656C96.6562 22.2656 91.1719 27.75 91.1719 34.4531C91.1719 41.1563 96.6094 46.6406 103.359 46.6406ZM103.359 26.9063C107.531 26.9063 110.906 30.2813 110.906 34.4531C110.906 38.625 107.531 42 103.359 42C99.1875 42 95.8125 38.625 95.8125 34.4531C95.8125 30.2813 99.1875 26.9063 103.359 26.9063Z" fill="black"/>
<path d="M84.0469 40.875V11.4844C84.0469 10.125 82.9219 9 81.5625 9H38.4375C37.0781 9 35.9531 10.125 35.9531 11.4844V40.875C35.9531 42.2344 37.0781 43.3594 38.4375 43.3594H50.4844L58.3594 51.2344C58.8281 51.7031 59.3906 51.9375 60 51.9375C60.6094 51.9375 61.1719 51.7031 61.6406 51.2344L69.5156 43.3594H81.5625C82.9688 43.3594 84.0469 42.2344 84.0469 40.875ZM79.4062 38.7187H68.5312C67.9219 38.7187 67.3125 38.9531 66.8906 39.4219L60 46.3125L53.1094 39.375C52.6875 38.9531 52.0781 38.6719 51.4688 38.6719H40.5938V13.6875H79.4062V38.7187Z" fill="black"/>
</g>
<defs>
<clipPath id="clip0_204_153">
<rect width="120" height="120" fill="white"/>
</clipPath>
</defs>
</svg>
