<svg width="120" height="120" viewBox="0 0 120 120" fill="none" xmlns="http://www.w3.org/2000/svg">
<g clip-path="url(#clip0_210_383)">
<path d="M22.875 22.8749C17.9993 27.75 14.1317 33.5378 11.493 39.9078C8.85433 46.2777 7.4962 53.105 7.4962 59.9999C7.4962 66.8947 8.85433 73.7221 11.493 80.092C14.1317 86.4619 17.9993 92.2497 22.875 97.1249C23.5581 97.8321 23.9361 98.7794 23.9275 99.7626C23.919 100.746 23.5246 101.686 22.8293 102.382C22.134 103.077 21.1935 103.471 20.2102 103.48C19.227 103.488 18.2797 103.11 17.5725 102.427C12.0006 96.8558 7.5808 90.2413 4.56533 82.9616C1.54985 75.6819 -0.00219727 67.8795 -0.00219727 59.9999C-0.00219727 52.1203 1.54985 44.3179 4.56533 37.0382C7.5808 29.7584 12.0006 23.1439 17.5725 17.5724C18.2797 16.8893 19.227 16.5113 20.2102 16.5199C21.1935 16.5284 22.134 16.9228 22.8293 17.6181C23.5246 18.3133 23.919 19.2539 23.9275 20.2371C23.9361 21.2204 23.5581 22.1676 22.875 22.8749ZM38.79 38.7899C33.1659 44.4157 30.0064 52.045 30.0064 59.9999C30.0064 67.9548 33.1659 75.5841 38.79 81.2099C39.1386 81.5585 39.4152 81.9725 39.6039 82.428C39.7926 82.8835 39.8897 83.3718 39.8897 83.8649C39.8897 84.358 39.7926 84.8462 39.6039 85.3018C39.4152 85.7573 39.1386 86.1712 38.79 86.5199C38.4413 86.8685 38.0274 87.1451 37.5719 87.3338C37.1163 87.5225 36.6281 87.6196 36.135 87.6196C35.6419 87.6196 35.1537 87.5225 34.6981 87.3338C34.2426 87.1451 33.8286 86.8685 33.48 86.5199C29.9967 83.0376 27.2336 78.9031 25.3485 74.3528C23.4633 69.8024 22.493 64.9253 22.493 59.9999C22.493 55.0745 23.4633 50.1973 25.3485 45.647C27.2336 41.0966 29.9967 36.9622 33.48 33.4799C34.1841 32.7757 35.1392 32.3801 36.135 32.3801C37.1308 32.3801 38.0858 32.7757 38.79 33.4799C39.4941 34.184 39.8897 35.1391 39.8897 36.1349C39.8897 37.1307 39.4941 38.0857 38.79 38.7899ZM81.21 33.4799C81.5583 33.1307 81.9721 32.8536 82.4277 32.6645C82.8833 32.4755 83.3717 32.3782 83.865 32.3782C84.3582 32.3782 84.8466 32.4755 85.3022 32.6645C85.7578 32.8536 86.1717 33.1307 86.52 33.4799C90.0032 36.9622 92.7663 41.0966 94.6515 45.647C96.5367 50.1973 97.507 55.0745 97.507 59.9999C97.507 64.9253 96.5367 69.8024 94.6515 74.3528C92.7663 78.9031 90.0032 83.0376 86.52 86.5199C86.1713 86.8685 85.7574 87.1451 85.3019 87.3338C84.8463 87.5225 84.3581 87.6196 83.865 87.6196C83.3719 87.6196 82.8837 87.5225 82.4281 87.3338C81.9726 87.1451 81.5587 86.8685 81.21 86.5199C80.8613 86.1712 80.5848 85.7573 80.3961 85.3018C80.2074 84.8462 80.1103 84.358 80.1103 83.8649C80.1103 83.3718 80.2074 82.8835 80.3961 82.428C80.5848 81.9725 80.8613 81.5585 81.21 81.2099C86.8341 75.5841 89.9936 67.9548 89.9936 59.9999C89.9936 52.045 86.8341 44.4157 81.21 38.7899C80.8608 38.4415 80.5837 38.0277 80.3947 37.5721C80.2056 37.1165 80.1083 36.6281 80.1083 36.1349C80.1083 35.6416 80.2056 35.1532 80.3947 34.6976C80.5837 34.242 80.8608 33.8282 81.21 33.4799ZM97.125 17.5799C97.8282 16.8769 98.7819 16.4819 99.7762 16.4819C100.771 16.4819 101.724 16.8769 102.427 17.5799C113.678 28.8318 119.998 44.0919 119.998 60.0036C119.998 75.9153 113.678 91.1754 102.427 102.427C101.72 103.11 100.773 103.488 99.7897 103.48C98.8065 103.471 97.8659 103.077 97.1707 102.382C96.4754 101.686 96.081 100.746 96.0725 99.7626C96.0639 98.7794 96.4419 97.8321 97.125 97.1249C102.001 92.2497 105.868 86.4619 108.507 80.092C111.146 73.7221 112.504 66.8947 112.504 59.9999C112.504 53.105 111.146 46.2777 108.507 39.9078C105.868 33.5378 102.001 27.75 97.125 22.8749C96.422 22.1717 96.027 21.218 96.027 20.2236C96.027 19.2293 96.422 18.2756 97.125 17.5724V17.5799ZM45 59.9999C45.0007 57.1945 45.7881 54.4456 47.2728 52.0653C48.7574 49.6851 50.8798 47.7688 53.3989 46.5343C55.918 45.2997 58.7328 44.7963 61.5237 45.0813C64.3145 45.3662 66.9695 46.4281 69.1871 48.1463C71.4047 49.8645 73.096 52.1702 74.069 54.8014C75.0419 57.4326 75.2575 60.2839 74.6912 63.0315C74.1249 65.7791 72.7995 68.3129 70.8655 70.345C68.9314 72.377 66.4663 73.826 63.75 74.5274V116.25C63.75 117.244 63.3549 118.198 62.6516 118.902C61.9484 119.605 60.9946 120 60 120C59.0054 120 58.0516 119.605 57.3483 118.902C56.6451 118.198 56.25 117.244 56.25 116.25V74.5274C53.0295 73.6959 50.1767 71.8175 48.1403 69.1878C46.1038 66.558 44.9991 63.326 45 59.9999Z" fill="black"/>
</g>
<defs>
<clipPath id="clip0_210_383">
<rect width="120" height="120" fill="white"/>
</clipPath>
</defs>
</svg>
