<svg width="120" height="120" viewBox="0 0 120 120" fill="none" xmlns="http://www.w3.org/2000/svg">
<path d="M78.19 51.3495C80.8665 51.3495 83.0362 49.0218 83.0362 46.1504C83.0362 43.2791 80.8665 40.9514 78.19 40.9514C75.5136 40.9514 73.3439 43.2791 73.3439 46.1504C73.3439 49.0218 75.5136 51.3495 78.19 51.3495Z" fill="black"/>
<path d="M64.6208 56.4874L63.5484 56.1932C55.5828 54.0349 51.0135 50.365 51.0135 46.1388C51.0135 41.9097 55.5855 38.2427 63.5484 36.0845L64.6208 35.7932L64.9221 36.932C65.7272 39.9137 66.7587 42.8195 68.0063 45.6204L68.2371 46.1388L68.0063 46.6573C66.7574 49.4621 65.7231 52.3689 64.9221 55.3515L64.6208 56.4874ZM63.0543 38.7349C57.0027 40.5641 53.2859 43.3544 53.2859 46.1388C53.2859 48.9175 57 51.7107 63.0543 53.5369C63.7955 51.0087 64.6914 48.5359 65.7285 46.1388C64.6839 43.7377 63.7905 41.2642 63.0543 38.7349ZM91.7565 56.4874L91.4579 55.3456C90.6507 52.3634 89.6183 49.4567 88.371 46.6544L88.1402 46.1388L88.371 45.6175C89.6199 42.8184 90.6488 39.9087 91.4579 36.9262L91.7565 35.7903L92.8289 36.0815C100.797 38.2398 105.364 41.9068 105.364 46.1388C105.364 50.368 100.795 54.0349 92.8289 56.1932L91.7565 56.4874ZM90.6434 46.1388C91.7294 48.6612 92.6335 51.1427 93.323 53.5369C99.3773 51.7107 103.094 48.9175 103.094 46.1388C103.094 43.3544 99.3801 40.567 93.323 38.7349C92.5826 41.2635 91.6875 43.7368 90.6434 46.1388Z" fill="black"/>
<path d="M63.038 38.7232L62.7393 37.5873C60.4968 29.1174 61.1755 23.0504 64.6045 20.9358C67.9574 18.8533 73.352 21.3145 79.0018 27.5329L79.7728 28.3834L79.0018 29.231C76.9951 31.4699 75.161 33.8797 73.5176 36.4368L73.2108 36.9086L72.6787 36.9552C69.7889 37.1987 66.9224 37.6946 64.1076 38.4378L63.038 38.7232ZM67.333 22.6193C66.7248 22.6193 66.1873 22.762 65.7339 23.0417C63.4859 24.431 63.0895 29.2688 64.6371 35.7989C67.0561 35.2252 69.4968 34.8145 71.9565 34.5844C73.3805 32.4175 74.934 30.352 76.6072 28.4009C73.0696 24.7106 69.7303 22.6193 67.333 22.6193ZM89.0443 72.0873C85.819 72.0873 81.676 69.4776 77.3755 64.7417L76.6072 63.8941L77.3755 63.0494C79.3825 60.8069 81.2174 58.3942 82.8624 55.8349L83.1665 55.3688L83.6932 55.3135C86.584 55.0743 89.4516 54.5804 92.2669 53.8368L93.3393 53.5455L93.6407 54.6844C95.8723 63.1485 95.1963 69.2242 91.7728 71.3387C90.9416 71.8442 89.9997 72.1026 89.0443 72.0873ZM79.7728 63.8737C83.3076 67.564 86.6497 69.6582 89.0443 69.6582C89.6552 69.6582 90.1927 69.5125 90.6434 69.2358C92.8941 67.8436 93.2932 62.997 91.7402 56.4669C89.3239 57.0436 86.8805 57.4572 84.4153 57.6873C82.9974 59.8575 81.4464 61.9242 79.7728 63.8737Z" fill="black"/>
<path d="M93.3393 38.7231L92.2669 38.4348C89.4517 37.6892 86.5841 37.1934 83.6932 36.9522L83.1665 36.9027L82.8624 36.4309C81.2197 33.8724 79.3846 31.4624 77.3755 29.2251L76.6072 28.3775L77.3755 27.5328C83.0226 21.3173 88.4144 18.8561 91.7728 20.9357C95.1991 23.0532 95.8805 29.1202 93.6407 37.5872L93.3393 38.7231ZM84.4153 34.5843C87.0054 34.8318 89.4597 35.2484 91.7402 35.7988C93.2905 29.2687 92.8941 24.4309 90.6434 23.0386C88.4063 21.6493 84.1954 23.7755 79.7728 28.4008C81.4452 30.3522 82.9982 32.4144 84.4153 34.5843ZM67.333 72.0872C66.3777 72.1018 65.436 71.8435 64.6045 71.3386C61.1755 69.2241 60.4968 63.1513 62.7366 54.6843L63.0298 53.5454L64.1022 53.8367C66.7194 54.5445 69.6027 55.0425 72.676 55.3134L73.2027 55.3687L73.5095 55.8348C75.1493 58.392 76.9846 60.8066 78.9936 63.0493L79.7647 63.894L78.9936 64.7416C74.6959 69.4804 70.5529 72.0872 67.333 72.0872ZM64.6371 56.4697C63.0896 62.9998 63.4859 67.8464 65.7339 69.2386C67.9737 70.6076 72.171 68.4959 76.6072 63.8736C74.9347 61.9218 73.3812 59.8564 71.9565 57.6901C69.4943 57.4565 67.0492 57.0488 64.6371 56.4697Z" fill="black"/>
<path d="M78.1901 57.9989C76.3249 57.9989 74.4109 57.9145 72.4887 57.7426L71.9566 57.6931L71.6498 57.2213C70.5659 55.5491 69.546 53.8302 68.5928 52.0688C67.6466 50.3027 66.7671 48.4964 65.9566 46.6543L65.7285 46.1387L65.9566 45.6174C66.7683 43.7766 67.6453 41.9708 68.5928 40.2057C69.5349 38.4698 70.5638 36.7339 71.6498 35.0504L71.9566 34.5844L72.4887 34.532C76.2812 34.1912 80.0935 34.1912 83.886 34.532L84.4127 34.5873L84.7195 35.0533C86.8909 38.3992 88.7979 41.9338 90.4208 45.6203L90.6462 46.1417L90.4208 46.6572C88.8024 50.3462 86.8951 53.8812 84.7195 57.2242L84.4127 57.696L83.886 57.7455C81.9692 57.9116 80.0525 57.9989 78.1901 57.9989ZM73.2109 55.3659C76.5638 55.6368 79.8163 55.6368 83.1665 55.3659C85.0368 52.4277 86.6994 49.3434 88.1403 46.1387C86.7045 42.9313 85.0417 39.8465 83.1665 36.9116C79.8529 36.6378 76.5245 36.6378 73.2109 36.9116C71.3341 39.8454 69.6713 42.9303 68.2371 46.1387C69.6811 49.3416 71.3436 52.4257 73.2109 55.3659Z" fill="black"/>
<g clip-path="url(#clip0_205_206)">
<path d="M45.6108 101.213L65.9728 90.2911L70.0452 57.5241L45.6108 46.6018L21.1765 57.5241L25.2489 90.2911L45.6108 101.213Z" stroke="black" stroke-width="4" stroke-linecap="round" stroke-linejoin="round"/>
<path d="M54.7738 81.5533L45.6109 61.8931L36.448 81.5533" stroke="black" stroke-width="4" stroke-linecap="round" stroke-linejoin="round"/>
<path d="M39.1714 75.7373H52.0503" stroke="black" stroke-width="4" stroke-linecap="round" stroke-linejoin="round"/>
</g>
<defs>
<clipPath id="clip0_205_206">
<rect width="65.1584" height="69.9029" fill="white" transform="translate(13.0317 37.864)"/>
</clipPath>
</defs>
</svg>
