<svg width="120" height="120" viewBox="0 0 120 120" fill="none" xmlns="http://www.w3.org/2000/svg">
<g clip-path="url(#clip0_209_348)">
<path d="M44.1094 86.5313C38.7656 102.422 17.5781 102.422 17.5781 102.422C17.5781 102.422 17.5781 81.2344 33.4688 75.8906" stroke="black" stroke-width="4" stroke-linecap="round" stroke-linejoin="round"/>
<path d="M91.8281 49.4063L60 81.2344L38.7656 60.0001L70.5938 28.1719C82.6406 16.1251 94.6875 16.2657 99.8438 17.0157C100.639 17.1218 101.378 17.4869 101.946 18.0545C102.513 18.6221 102.878 19.3607 102.984 20.1563C103.734 25.3126 103.875 37.3594 91.8281 49.4063Z" stroke="black" stroke-width="3" stroke-linecap="round" stroke-linejoin="round"/>
<path d="M86.5313 54.7031V84.9844C86.5172 85.9735 86.1128 86.917 85.4063 87.6094L70.2656 102.797C69.7853 103.277 69.1837 103.617 68.525 103.782C67.8664 103.946 67.1754 103.929 66.5258 103.732C65.8761 103.535 65.2923 103.165 64.8364 102.661C64.3806 102.158 64.0699 101.541 63.9375 100.875L60 81.2344" stroke="black" stroke-width="3" stroke-linecap="round" stroke-linejoin="round"/>
<path d="M65.2969 33.4688H35.0156C34.0265 33.4828 33.083 33.8872 32.3906 34.5938L17.2031 49.7344C16.7234 50.2147 16.383 50.8163 16.2183 51.475C16.0536 52.1336 16.0709 52.8246 16.2682 53.4742C16.4654 54.1239 16.8354 54.7077 17.3385 55.1636C17.8417 55.6194 18.4591 55.9301 19.125 56.0625L38.7656 60" stroke="black" stroke-width="3" stroke-linecap="round" stroke-linejoin="round"/>
</g>
<defs>
<clipPath id="clip0_209_348">
<rect width="120" height="120" fill="white"/>
</clipPath>
</defs>
</svg>
