<svg width="120" height="120" viewBox="0 0 120 120" fill="none" xmlns="http://www.w3.org/2000/svg">
<g clip-path="url(#clip0_205_212)">
<path d="M102.432 65.2076H99.45C98.85 55.5501 91.4025 47.7326 81.9075 46.5676C86.6075 43.7301 89.7675 38.5876 89.7675 32.7101C89.7675 23.7826 82.505 16.5176 73.575 16.5176C64.645 16.5176 57.38 23.7826 57.38 32.7101C57.38 38.5901 60.54 43.7301 65.2425 46.5676C55.745 47.7326 48.3 55.5501 47.7 65.2076H24.375V58.1251C24.375 48.4976 31.925 40.6201 41.415 40.0551C41.955 42.2026 43.8875 43.8026 46.2 43.8026H49.2725C52.0025 43.8026 54.22 41.5826 54.22 38.8551C54.22 36.1276 52 33.9076 49.2725 33.9076H46.2C43.9225 33.9076 42.0225 35.4601 41.4475 37.5551C30.5675 38.1101 21.8775 47.1101 21.8775 58.1276V65.2101H17.4325C16.7425 65.2101 16.1825 65.7701 16.1825 66.4601V79.3776C16.1825 80.0676 16.7425 80.6276 17.4325 80.6276H24.515V102.92C24.515 103.61 25.075 104.17 25.765 104.17H94.0975C94.7875 104.17 95.3475 103.61 95.3475 102.92V80.6251H102.432C103.122 80.6251 103.682 80.0651 103.682 79.3751V66.4576C103.682 65.7676 103.122 65.2076 102.432 65.2076ZM46.1975 36.4076H49.27C50.62 36.4076 51.7175 37.5051 51.7175 38.8551C51.7175 40.2051 50.62 41.3026 49.27 41.3026H46.1975C44.8475 41.3026 43.75 40.2051 43.75 38.8551C43.75 37.5051 44.8475 36.4076 46.1975 36.4076ZM59.8825 32.7076C59.8825 25.1576 66.025 19.0151 73.5775 19.0151C81.1275 19.0151 87.27 25.1576 87.27 32.7076C87.27 40.2576 81.1275 46.4001 73.5775 46.4001C66.025 46.4026 59.8825 40.2601 59.8825 32.7076ZM67.695 48.9026H79.455C88.7175 48.9026 96.3275 56.1101 96.97 65.2076H50.1825C50.825 56.1076 58.435 48.9026 67.695 48.9026ZM92.8475 101.668H27.015V80.6251H92.8475V101.668ZM101.182 78.1251H94.0975H25.765H18.6825V67.7076H48.89H98.265H101.182V78.1251Z" fill="#010101"/>
</g>
<defs>
<clipPath id="clip0_205_212">
<rect width="120" height="120" fill="white"/>
</clipPath>
</defs>
</svg>
