<svg width="120" height="120" viewBox="0 0 120 120" fill="none" xmlns="http://www.w3.org/2000/svg">
<g clip-path="url(#clip0_204_188)">
<path d="M43.1976 60.0022C43.1976 68.6132 36.211 75.5998 27.6024 75.5998" stroke="black" stroke-width="3" stroke-miterlimit="2.6131" stroke-linecap="round" stroke-linejoin="round"/>
<path d="M27.6024 75.5998C18.9845 75.5998 12 68.6132 12 60.0022" stroke="black" stroke-width="3" stroke-miterlimit="2.6131" stroke-linecap="round" stroke-linejoin="round"/>
<path d="M12 60.0023C12 51.3868 18.9845 44.4023 27.6024 44.4023" stroke="black" stroke-width="3" stroke-miterlimit="2.6131" stroke-linecap="round" stroke-linejoin="round"/>
<path d="M27.6024 44.4023C36.211 44.4023 43.1976 51.3868 43.1976 60.0023" stroke="black" stroke-width="3" stroke-miterlimit="2.6131" stroke-linecap="round" stroke-linejoin="round"/>
<path d="M108 96C108 104.611 101.006 111.6 92.3953 111.6" stroke="black" stroke-width="3" stroke-miterlimit="2.6131" stroke-linecap="round" stroke-linejoin="round"/>
<path d="M92.3952 111.6C83.7867 111.6 76.7928 104.611 76.7928 96" stroke="black" stroke-width="3" stroke-miterlimit="2.6131" stroke-linecap="round" stroke-linejoin="round"/>
<path d="M76.7931 95.9999C76.7931 87.3843 83.7869 80.3975 92.3955 80.3975" stroke="black" stroke-width="3" stroke-miterlimit="2.6131" stroke-linecap="round" stroke-linejoin="round"/>
<path d="M92.3953 80.3975C101.006 80.3975 108 87.3841 108 95.9999" stroke="black" stroke-width="3" stroke-miterlimit="2.6131" stroke-linecap="round" stroke-linejoin="round"/>
<path d="M108 24.0046C108 32.6156 101.006 39.6022 92.3953 39.6022" stroke="black" stroke-width="3" stroke-miterlimit="2.6131" stroke-linecap="round" stroke-linejoin="round"/>
<path d="M92.3952 39.6022C83.7867 39.6022 76.7928 32.6156 76.7928 24.0046" stroke="black" stroke-width="3" stroke-miterlimit="2.6131" stroke-linecap="round" stroke-linejoin="round"/>
<path d="M76.7931 24.0047C76.7931 15.3892 83.7869 8.3999 92.3955 8.3999" stroke="black" stroke-width="3" stroke-miterlimit="2.6131" stroke-linecap="round" stroke-linejoin="round"/>
<path d="M92.3953 8.3999C101.006 8.3999 108 15.3889 108 24.0047" stroke="black" stroke-width="3" stroke-miterlimit="2.6131" stroke-linecap="round" stroke-linejoin="round"/>
<path d="M41.3931 51.5951L77.9931 30.9023" stroke="black" stroke-width="3" stroke-miterlimit="2.6131" stroke-linecap="round" stroke-linejoin="round"/>
<path d="M78.4452 87.7076L41.8383 67.01" stroke="black" stroke-width="3" stroke-miterlimit="2.6131" stroke-linecap="round" stroke-linejoin="round"/>
</g>
<defs>
<clipPath id="clip0_204_188">
<rect width="120" height="120" fill="white"/>
</clipPath>
</defs>
</svg>
