<svg width="120" height="120" viewBox="0 0 120 120" fill="none" xmlns="http://www.w3.org/2000/svg">
<path d="M60 0C26.9161 0 0 26.9161 0 60C0 93.0839 26.9161 120 60 120C93.0839 120 120 93.0839 120 60C120 26.9161 93.0839 0 60 0ZM60 117.39C28.3556 117.39 2.61017 91.6444 2.61017 60C2.61017 28.3556 28.3556 2.61017 60 2.61017C91.6444 2.61017 117.39 28.3556 117.39 60C117.39 91.6444 91.6444 117.39 60 117.39Z" fill="#2D2D37"/>
<path d="M88.0188 32.1925C87.6521 31.54 86.9604 31.1328 86.2152 31.1328C86.1734 31.1328 86.0547 31.138 86.0129 31.1433C77.2166 31.9968 73.0378 34.8249 71.148 36.8021C63.9752 35.0898 56.0247 35.0898 48.8519 36.8021C46.9661 34.8236 42.7872 31.9968 33.9857 31.1419C33.9452 31.138 33.8304 31.1328 33.7899 31.1328C33.0382 31.1328 32.3452 31.54 31.9772 32.1991C31.6183 32.8516 28.6244 38.6344 30.9474 46.525C26.9943 50.696 24.9088 55.5784 24.9088 60.6904C24.9088 67.3972 25.3108 74.4042 30.1148 79.8934C35.3991 85.9307 45.1742 88.8659 59.9986 88.8659C74.8218 88.8659 84.5995 85.9307 89.8851 79.8934C94.6878 74.4042 95.0885 67.3972 95.0885 60.6904C95.0885 55.5797 93.003 50.6987 89.0499 46.525C91.3768 38.6357 88.383 32.8516 88.0188 32.1925ZM43.7738 81.4647C39.6015 78.865 37.5721 74.4094 37.5721 67.8462C37.5721 60.1723 40.8178 59.5367 44.4342 59.5367C46.4767 59.5367 48.8245 59.8682 51.312 60.2179C54.1453 60.6173 57.074 61.0297 60 61.0297C62.9286 61.0297 65.8559 60.6173 68.6879 60.2179C71.1741 59.8669 73.5219 59.5367 75.5657 59.5367C79.1821 59.5367 82.4265 60.1723 82.4265 67.8462C82.4265 74.4108 80.3984 78.865 76.2261 81.4647C72.6789 83.6756 67.5238 84.7053 60 84.7053C52.4774 84.7053 47.3224 83.6756 43.7738 81.4647ZM92.4809 60.6904C92.4809 66.9013 92.1286 73.3667 87.9236 78.1746C85.2508 81.2259 81.2037 83.3976 75.6858 84.7157C76.3657 84.3999 77.0052 84.0553 77.6082 83.6795C82.6066 80.5642 85.0367 75.3856 85.0367 67.8462C85.0367 58.1677 79.9756 56.9265 75.5657 56.9265C73.3405 56.9265 70.9039 57.2698 68.3238 57.6339C65.5818 58.0202 62.7472 58.4195 60 58.4195C57.2554 58.4195 54.4194 58.0202 51.6761 57.6339C49.096 57.2698 46.6594 56.9265 44.4342 56.9265C40.0243 56.9265 34.9619 58.1677 34.9619 67.8462C34.9619 75.3843 37.392 80.5642 42.393 83.6795C42.9947 84.0553 43.6342 84.3999 44.3154 84.7157C38.7975 83.3976 34.7505 81.2259 32.079 78.1746C27.8701 73.3667 27.519 66.9013 27.519 60.6904C27.519 56.0534 29.534 51.5966 33.3462 47.804C33.6986 47.4542 33.8199 46.9361 33.6646 46.4663C31.5165 40.0204 33.5002 35.0533 34.1031 33.7769C43.0103 34.7153 46.3475 37.7835 47.3746 39.073C47.6956 39.4762 48.2229 39.6537 48.7214 39.5232C55.9372 37.6635 64.0588 37.6635 71.2772 39.5232C71.7757 39.6511 72.3017 39.4749 72.6227 39.073C73.6538 37.7822 77.0013 34.7035 85.8955 33.7743C86.4997 35.052 88.4821 40.0204 86.3353 46.4663C86.1787 46.9361 86.3013 47.4542 86.6524 47.804C90.4659 51.5992 92.4809 56.0547 92.4809 60.6904Z" fill="#2D2D37"/>
<path d="M46.5146 63.6738C43.8078 63.6738 41.6884 66.4367 41.6884 69.963C41.6884 73.4894 43.8078 76.2522 46.5146 76.2522C49.2213 76.2522 51.3421 73.4894 51.3421 69.963C51.3421 66.4367 49.2213 63.6738 46.5146 63.6738ZM46.5146 73.6421C45.3126 73.6421 44.2985 71.9572 44.2985 69.963C44.2985 67.9689 45.3126 66.284 46.5146 66.284C47.7165 66.284 48.7319 67.9689 48.7319 69.963C48.7319 71.9572 47.7165 73.6421 46.5146 73.6421Z" fill="#2D2D37"/>
<path d="M73.4855 63.6738C70.7788 63.6738 68.6593 66.4367 68.6593 69.963C68.6593 73.4894 70.7788 76.2522 73.4855 76.2522C76.1923 76.2522 78.313 73.4894 78.313 69.963C78.313 66.4367 76.1923 63.6738 73.4855 63.6738ZM73.4855 73.6421C72.2835 73.6421 71.2695 71.9572 71.2695 69.963C71.2695 67.9689 72.2835 66.284 73.4855 66.284C74.6875 66.284 75.7028 67.9689 75.7028 69.963C75.7028 71.9572 74.6875 73.6421 73.4855 73.6421Z" fill="#2D2D37"/>
</svg>
