<svg width="113" height="113" viewBox="0 0 113 113" fill="none" xmlns="http://www.w3.org/2000/svg">
<path d="M63.4455 41.752H36.8719C36.1441 41.752 35.5535 41.0734 35.5535 40.3457C35.5535 39.618 36.1441 38.9395 36.8719 38.9395H61.8593C61.2555 38.002 60.7287 36.3613 60.282 35.4238H36.8719C36.1441 35.4238 35.5535 34.7505 35.5535 34.0176C35.5535 33.2898 36.1441 32.6113 36.8719 32.6113H59.4703C58.8893 30.502 58.575 28.0166 58.575 25.5719C58.575 21.1054 59.5638 16.9082 61.399 13.1582H12.1448C9.97219 13.1582 8.4375 14.9922 8.4375 17.1653V92.8457H62.7837C64.129 92.8457 65.419 93.2613 66.4289 94.1411C66.5515 94.2438 66.7411 94.3841 67.0076 94.6848L67.1112 94.7371C67.9373 95.7283 68.4375 96.974 68.4375 98.2759V104.109C68.4375 107.526 70.5469 112.404 73.3594 112.404V112.337C68.9062 112.271 65.3906 108.618 65.3906 104.109V98.2759C65.3906 97.6942 65.0824 97.158 64.7405 96.7476C64.7405 96.7476 64.512 96.5561 64.4379 96.4996C64.0158 96.1173 63.3998 95.8926 62.7837 95.8926H2.37539C1.04648 95.8926 0 96.947 0 98.2759V103.944C0 108.585 3.73219 112.299 8.37398 112.299H73.2959C75.4052 112.299 77.1028 111.665 78.5004 110.568C80.4253 109.065 81.7969 106.745 81.7969 104.108V53.773C74.0625 52.2972 67.6177 48.0801 63.4455 41.752ZM21.9223 31.2812C23.3679 31.2812 24.6987 31.7615 25.7756 32.5635L21.0354 37.3028L20.1809 36.2917C19.6636 35.6802 18.7477 35.6036 18.1373 36.1209C17.5254 36.6381 17.4492 37.5531 17.9662 38.1648L19.8394 40.3795C20.1007 40.6893 20.4806 40.8747 20.8863 40.8918C20.9065 40.8927 20.9266 40.8932 20.9468 40.8932C21.3305 40.8932 21.6994 40.7413 21.9717 40.4688L27.663 34.7779C28.1245 35.6683 28.3896 36.6768 28.3896 37.7488C28.3896 41.3202 25.4939 44.2162 21.9223 44.2162C18.3504 44.2162 15.4554 41.3205 15.4554 37.7488C15.4554 34.1767 18.3504 31.2812 21.9223 31.2812ZM21.9223 51.861C23.3679 51.861 24.6982 52.3413 25.7756 53.1428L21.0354 57.8826L20.1809 56.8715C19.6636 56.26 18.7477 56.1834 18.1373 56.7006C17.5254 57.2174 17.4492 58.1329 17.9662 58.7446L19.8394 60.9592C20.1007 61.2686 20.4806 61.4545 20.8863 61.4716C20.9065 61.4725 20.9266 61.473 20.9468 61.473C21.3305 61.473 21.6994 61.3206 21.9717 61.048L27.663 55.3577C28.1245 56.248 28.3896 57.2566 28.3896 58.3281C28.3896 61.9 25.4939 64.7955 21.9223 64.7955C18.3504 64.7955 15.4554 61.9 15.4554 58.3281C15.4554 54.7563 18.3504 51.861 21.9223 51.861ZM21.9223 85.3748C18.3504 85.3748 15.4554 82.4793 15.4554 78.9079C15.4554 75.336 18.3504 72.4405 21.9223 72.4405C23.3679 72.4405 24.6982 72.9208 25.7756 73.7224L21.0354 78.4621L20.1809 77.451C19.6636 76.8395 18.7477 76.7629 18.1373 77.2802C17.5254 77.797 17.4492 78.712 17.9662 79.3237L19.8394 81.5383C20.1007 81.8481 20.4806 82.0335 20.8863 82.0511C20.9065 82.0516 20.9266 82.052 20.9468 82.052C21.3305 82.052 21.6994 81.9002 21.9717 81.6276L27.663 75.9372C28.1245 76.8271 28.3896 77.8361 28.3896 78.9081C28.3896 82.4795 25.4937 85.3748 21.9223 85.3748ZM69.5951 82.7676H36.8747C36.1465 82.7676 35.5563 82.2067 35.5563 81.4785C35.5563 80.7503 36.1465 80.1895 36.8747 80.1895H69.5951C70.3228 80.1895 70.9134 80.7503 70.9134 81.4785C70.9134 82.2067 70.323 82.7676 69.5951 82.7676ZM69.5951 76.4395H36.8747C36.1465 76.4395 35.5563 75.8786 35.5563 75.1504C35.5563 74.4222 36.1465 73.8613 36.8747 73.8613H69.5951C70.3228 73.8613 70.9134 74.4222 70.9134 75.1504C70.9134 75.8786 70.323 76.4395 69.5951 76.4395ZM69.5951 62.1426H36.8747C36.1465 62.1426 35.5563 61.5817 35.5563 60.8535C35.5563 60.1253 36.1465 59.5645 36.8747 59.5645H69.5951C70.3228 59.5645 70.9134 60.1253 70.9134 60.8535C70.9134 61.5817 70.323 62.1426 69.5951 62.1426ZM70.9134 54.5254C70.9134 55.2536 70.3228 55.8145 69.5951 55.8145H36.8747C36.1465 55.8145 35.5563 55.2536 35.5563 54.5254C35.5563 53.7972 36.1465 53.2363 36.8747 53.2363H69.5951C70.323 53.2363 70.9134 53.7972 70.9134 54.5254Z" fill="black" fill-opacity="0.67"/>
<path d="M87.1336 0C72.9424 0 61.4355 11.5069 61.4355 25.703C61.4355 39.8937 72.9424 51.4001 87.1336 51.4001C101.329 51.4001 112.831 39.8937 112.831 25.703C112.83 11.5069 101.329 0 87.1336 0ZM88.5937 29.1623C88.5937 29.1834 88.5886 29.2099 88.5834 29.2305C88.5619 29.7684 88.2373 30.2541 87.7477 30.4807C87.5527 30.57 87.3401 30.6127 87.1345 30.6127C86.8177 30.6127 86.5012 30.5074 86.2425 30.3014C86.227 30.2909 86.2109 30.2749 86.1949 30.2648L78.6171 23.8205L78.6063 23.8151L77.9998 23.2983C77.3878 22.7815 77.314 21.8641 77.8364 21.2576C78.3532 20.6461 79.0854 20.5723 79.692 21.0891L85.3125 26.0252V10.9057C85.3125 10.1041 86.1511 9.45539 86.9531 9.45539C87.7542 9.45539 88.5937 10.1041 88.5937 10.9057V29.1623Z" fill="white"/>
</svg>
