<svg width="120" height="120" viewBox="0 0 120 120" fill="none" xmlns="http://www.w3.org/2000/svg">
<path d="M93.7499 30.0273V19.6673C93.7499 19.303 93.5394 18.9725 93.2098 18.8178C92.882 18.6657 92.4883 18.7143 92.2119 18.9477C79.3893 29.6695 59.5379 31.8008 58.9933 31.8571L36.7912 33.337C33.7983 33.5365 30.8101 34.0255 27.9106 34.79C25.829 35.3382 24.3755 37.2112 24.3749 39.3438H23.4373C18.7846 39.3438 14.9998 43.7439 14.9998 49.1527V55.8057C14.9998 61.2147 18.7846 65.6146 23.4373 65.6146H24.3749C24.3753 67.7472 25.829 69.6202 27.9106 70.1684C29.612 70.6171 31.3456 70.9585 33.0913 71.2147C34.0331 72.0676 37.4788 75.509 38.8704 81.359C40.1778 86.8531 39.2109 92.4038 36.1484 96.9907C35.5882 97.8303 35.5378 98.8638 36.0148 99.7546C36.5028 100.667 37.4576 101.234 38.5068 101.234H55.2564C56.0885 101.234 56.8732 100.878 57.4087 100.256C57.9269 99.6548 58.1576 98.8619 58.0413 98.0802C57.4312 93.9957 55.6316 81.9835 51.6127 72.6102L58.9931 73.1024C59.5374 73.1587 79.3889 75.289 92.2117 86.0118C92.3819 86.1556 92.5963 86.2297 92.8123 86.2297C92.9478 86.2297 93.0832 86.2004 93.2096 86.1417C93.5392 85.987 93.7498 85.6565 93.7498 85.2922V74.9322C100.032 74.4504 105 69.1959 105 62.7922V42.1672C105 35.7637 100.032 30.5092 93.7499 30.0273ZM16.8749 55.8059V49.1528C16.8749 44.7785 19.8193 41.219 23.4374 41.219H24.3749V63.74H23.4374C19.8193 63.74 16.8749 60.1803 16.8749 55.8059ZM56.1868 98.3568C56.2233 98.6022 56.1528 98.842 55.988 99.0325C55.8095 99.2403 55.5421 99.3593 55.2566 99.3593H38.507C38.1453 99.3593 37.8313 99.1762 37.6683 98.8705C37.5988 98.7406 37.4632 98.399 37.7086 98.0328C41.0632 93.0074 42.1243 86.932 40.6942 80.9253C39.6464 76.5207 37.5556 73.4052 35.9857 71.5486C36.2544 71.5711 36.5225 71.6037 36.7912 71.6217L49.4954 72.469C52.2826 78.6125 54.5364 87.3037 56.1868 98.3568ZM58.1249 71.1648L36.9159 69.7503C34.0421 69.5588 31.1728 69.0901 28.3886 68.3559C27.1297 68.0236 26.2499 66.8965 26.2499 65.6138V39.3445C26.2499 38.0619 27.1297 36.9348 28.3886 36.6025C31.1728 35.8683 34.0419 35.3995 36.9159 35.2081L58.1249 33.7945V71.1648ZM91.8749 83.3468C79.9333 74.2799 63.8204 71.8072 59.9999 71.3322V33.6273C63.8204 33.1525 79.9333 30.6789 91.8749 21.6127V83.3468ZM103.125 62.7924C103.125 68.1622 98.9973 72.5814 93.7499 73.0574V31.9023C98.9973 32.3782 103.125 36.7975 103.125 42.1674V62.7924Z" fill="black"/>
</svg>
