<svg width="120" height="120" viewBox="0 0 120 120" fill="none" xmlns="http://www.w3.org/2000/svg">
<g clip-path="url(#clip0_203_99)">
<path d="M5.625 75C4.59 75 3.75 74.16 3.75 73.125V13.125C3.75 10.0237 6.27375 7.5 9.375 7.5H110.625C113.726 7.5 116.25 10.0237 116.25 13.125V18.75C116.25 19.785 115.41 20.625 114.375 20.625C113.34 20.625 112.5 19.785 112.5 18.75V13.125C112.5 12.0937 111.656 11.25 110.625 11.25H9.375C8.34375 11.25 7.5 12.0937 7.5 13.125V73.125C7.5 74.16 6.66 75 5.625 75Z" fill="#263238"/>
<path d="M60 116.25H39.375C38.34 116.25 37.5 115.41 37.5 114.375C37.5 113.34 38.34 112.5 39.375 112.5H43.125C46.2263 112.5 48.75 109.976 48.75 106.875V97.5C48.75 96.465 49.59 95.625 50.625 95.625C51.66 95.625 52.5 96.465 52.5 97.5V106.875C52.5 108.986 51.7987 110.932 50.6212 112.5H60C61.035 112.5 61.875 113.34 61.875 114.375C61.875 115.41 61.035 116.25 60 116.25Z" fill="#263238"/>
<path d="M58.125 97.5H9.375C6.27375 97.5 3.75 94.9763 3.75 91.875V80.625C3.75 79.59 4.59 78.75 5.625 78.75H58.125C59.16 78.75 60 79.59 60 80.625C60 81.66 59.16 82.5 58.125 82.5H7.5V91.875C7.5 92.9063 8.34375 93.75 9.375 93.75H58.125C59.16 93.75 60 94.59 60 95.625C60 96.66 59.16 97.5 58.125 97.5Z" fill="#263238"/>
<path d="M80.625 33.75H99.375C100.41 33.75 101.25 32.91 101.25 31.875C101.25 30.84 100.41 30 99.375 30H80.625C79.59 30 78.75 30.84 78.75 31.875C78.75 32.91 79.59 33.75 80.625 33.75Z" fill="#263238"/>
<path d="M88.125 108.75H91.875C92.91 108.75 93.75 107.91 93.75 106.875C93.75 105.84 92.91 105 91.875 105H88.125C87.09 105 86.25 105.84 86.25 106.875C86.25 107.91 87.09 108.75 88.125 108.75Z" fill="#263238"/>
<path d="M106.875 116.25H73.125C67.9538 116.25 63.75 112.046 63.75 106.875V31.875C63.75 26.7038 67.9538 22.5 73.125 22.5H106.875C112.046 22.5 116.25 26.7038 116.25 31.875V106.875C116.25 112.046 112.046 116.25 106.875 116.25ZM73.125 26.25C70.0237 26.25 67.5 28.7737 67.5 31.875V106.875C67.5 109.976 70.0237 112.5 73.125 112.5H106.875C109.976 112.5 112.5 109.976 112.5 106.875V31.875C112.5 28.7737 109.976 26.25 106.875 26.25H73.125Z" fill="#263238"/>
</g>
<defs>
<clipPath id="clip0_203_99">
<rect width="120" height="120" fill="white"/>
</clipPath>
</defs>
</svg>
