<svg width="120" height="120" viewBox="0 0 120 120" fill="none" xmlns="http://www.w3.org/2000/svg">
<g clip-path="url(#clip0_204_122)">
<path d="M11.2621 91.0877C11.2621 94.9372 5.40991 94.9372 5.40991 91.0877V4.4305C5.40991 2.81474 6.72095 1.50513 8.33671 1.50513H87.6351C102.466 1.50513 114.59 13.629 114.59 28.46V115.569C114.59 117.185 113.28 118.495 111.665 118.495H18.4777C14.6283 118.495 14.6283 112.643 18.4777 112.643H108.738V28.46C108.738 16.8605 99.2346 7.3573 87.6351 7.3573H11.2621V91.0877ZM39.0333 69.4181C35.1838 69.4181 35.1838 63.5659 39.0333 63.5659H91.0481C94.8961 63.5659 94.8961 69.4181 91.0481 69.4181H39.0333ZM64.0153 40.9991C60.1658 40.9991 60.1658 35.147 64.0153 35.147H91.0481C94.8961 35.147 94.8961 40.9991 91.0481 40.9991H64.0153ZM64.0153 53.0139C60.1658 53.0139 60.1658 47.1617 64.0153 47.1617H91.0481C94.8961 47.1617 94.8961 53.0139 91.0481 53.0139H64.0153ZM39.0333 81.4328C35.1838 81.4328 35.1838 75.5807 39.0333 75.5807H91.0481C94.8961 75.5807 94.8961 81.4328 91.0481 81.4328H39.0333ZM28.9518 25.2611H51.374C52.9898 25.2611 54.2994 26.5707 54.2994 28.1864V50.6696C54.2994 52.2854 52.9898 53.5964 51.374 53.5964H28.9518C27.3361 53.5964 26.0265 52.2854 26.0265 50.6696V28.1864C26.0265 26.5707 27.3361 25.2611 28.9518 25.2611ZM48.4473 31.1132H31.8786V47.7442H48.4473V31.1132Z" fill="black"/>
</g>
<defs>
<clipPath id="clip0_204_122">
<rect width="120" height="120" fill="white"/>
</clipPath>
</defs>
</svg>
