<svg width="120" height="120" viewBox="0 0 120 120" fill="none" xmlns="http://www.w3.org/2000/svg">
<g clip-path="url(#clip0_209_334)">
<path d="M88.4475 88.4475C88.905 87.99 89.43 87.6337 89.9775 87.3262L81.4425 78.7875C80.7112 78.0562 79.5225 78.0562 78.7912 78.7875C78.06 79.5225 78.06 80.7075 78.7912 81.4425L87.3075 89.9587C87.63 89.4225 87.99 88.9012 88.4475 88.4475Z" fill="black"/>
<path d="M106.875 116.25C104.374 116.25 102.019 115.275 100.245 113.505L87.12 100.38C85.35 98.6062 84.375 96.2549 84.375 93.7499C84.375 91.2449 85.35 88.8937 87.12 87.1199C90.5175 83.7224 96.9788 83.7224 100.376 87.1199L113.501 100.245C115.275 102.019 116.25 104.37 116.25 106.875C116.25 109.38 115.275 111.731 113.505 113.505C111.735 115.279 109.376 116.25 106.875 116.25ZM93.75 88.1999C92.2237 88.1999 90.7762 88.7699 89.7712 89.7749C88.71 90.8362 88.125 92.2499 88.125 93.7499C88.125 95.2499 88.71 96.6637 89.7712 97.7287L102.896 110.854C105.022 112.976 108.724 112.976 110.85 110.854C111.915 109.789 112.5 108.375 112.5 106.875C112.5 105.375 111.915 103.961 110.854 102.896L97.7288 89.7711C96.7238 88.7699 95.2763 88.1999 93.75 88.1999Z" fill="black"/>
<path d="M48.75 84.1874C47.715 84.1874 46.875 83.3474 46.875 82.3124C46.875 81.2774 47.715 80.4374 48.75 80.4374C62.8763 80.4374 75.1312 71.4224 79.2487 58.0087C79.5525 57.0187 80.6025 56.4524 81.5925 56.7674C82.5825 57.0712 83.1413 58.1174 82.8375 59.1074C78.2288 74.1112 64.5338 84.1874 48.75 84.1874Z" fill="black"/>
<path d="M48.75 93.75C23.9362 93.75 3.75 73.5638 3.75 48.75C3.75 23.9362 23.9362 3.75 48.75 3.75C73.5638 3.75 93.75 23.9362 93.75 48.75C93.75 73.5638 73.5638 93.75 48.75 93.75ZM48.75 7.5C26.0062 7.5 7.5 26.0062 7.5 48.75C7.5 71.4938 26.0062 90 48.75 90C71.4938 90 90 71.4938 90 48.75C90 26.0062 71.4938 7.5 48.75 7.5Z" fill="black"/>
<path d="M82.5 50.625C83.5355 50.625 84.375 49.7855 84.375 48.75C84.375 47.7145 83.5355 46.875 82.5 46.875C81.4645 46.875 80.625 47.7145 80.625 48.75C80.625 49.7855 81.4645 50.625 82.5 50.625Z" fill="black"/>
</g>
<defs>
<clipPath id="clip0_209_334">
<rect width="120" height="120" fill="white"/>
</clipPath>
</defs>
</svg>
