<svg width="120" height="120" viewBox="0 0 120 120" fill="none" xmlns="http://www.w3.org/2000/svg">
<g clip-path="url(#clip0_205_210)">
<path d="M109.966 8.34619H10.0336C9.89893 8.34619 9.76559 8.37286 9.64128 8.42469C9.51697 8.47651 9.40416 8.55244 9.30936 8.64811C9.21456 8.74378 9.13966 8.85728 9.08898 8.98206C9.0383 9.10684 9.01284 9.24042 9.01408 9.3751V62.2946C9.01408 62.4285 9.04045 62.5611 9.09169 62.6848C9.14292 62.8085 9.21802 62.9209 9.3127 63.0155C9.40737 63.1102 9.51976 63.1853 9.64346 63.2366C9.76715 63.2878 9.89973 63.3142 10.0336 63.3142H31.8305C30.9211 65.3649 30.0985 68.0579 29.4867 71.5993C28.2835 70.7526 26.9222 70.1567 25.484 69.8469C24.0457 69.5371 22.5598 69.5198 21.1147 69.7961C19.6696 70.0724 18.2948 70.6366 17.0723 71.4551C15.8497 72.2736 14.8043 73.3297 13.9982 74.5605C13.1922 75.7914 12.642 77.1718 12.3804 78.6196C12.1189 80.0674 12.1512 81.5531 12.4756 82.9881C12.8 84.4232 13.4098 85.7784 14.2687 86.9729C15.1275 88.1675 16.218 89.177 17.475 89.9415C17.1926 90.1167 16.9225 90.3109 16.6664 90.5228C14.1867 92.5782 11.0156 97.7345 10.0781 110.559C10.0581 110.829 10.1455 111.095 10.3212 111.299C10.497 111.504 10.7467 111.631 11.0156 111.652H11.0906C11.347 111.652 11.594 111.556 11.7826 111.382C11.9711 111.208 12.0872 110.97 12.1078 110.714C13.4203 92.9767 18.8649 91.2728 20.0461 91.1064C22.1254 91.7407 24.3465 91.7407 26.4258 91.1064C27.6352 91.2704 33.0399 93.0634 34.3477 110.719C34.3683 110.974 34.4841 111.212 34.6721 111.386C34.8601 111.559 35.1066 111.656 35.3625 111.656H35.4399C35.7086 111.635 35.9579 111.508 36.1335 111.303C36.3091 111.099 36.3968 110.833 36.3774 110.564C35.4281 97.7345 32.257 92.5782 29.7656 90.5228C29.5092 90.3114 29.2391 90.1173 28.9571 89.9415C30.3375 89.0989 31.5139 87.9606 32.4015 86.6086C33.2891 85.2566 33.8657 83.7245 34.0899 82.1228C34.314 80.5211 34.1802 78.8896 33.6979 77.3459C33.2156 75.8022 32.3969 74.3846 31.3008 73.1954C33.1946 60.3985 37.6078 59.0204 38.6602 58.8751C40.7402 59.5095 42.9622 59.5095 45.0422 58.8751C46.1086 59.0204 50.4 60.429 52.3196 72.7571C51.1232 73.9212 50.2089 75.3435 49.6467 76.9153C49.0844 78.487 48.8891 80.1665 49.0757 81.8253C49.2623 83.4841 49.8259 85.0783 50.7232 86.4858C51.6206 87.8933 52.828 89.077 54.2531 89.9462C53.9719 90.122 53.7026 90.3162 53.4469 90.5274C50.9531 92.5923 47.7821 97.7462 46.8352 110.564C46.8151 110.833 46.9026 111.099 47.0783 111.304C47.254 111.509 47.5037 111.635 47.7727 111.656H47.85C48.1061 111.657 48.3529 111.56 48.541 111.386C48.7292 111.213 48.8448 110.974 48.8649 110.719C50.1797 92.972 55.6172 91.2657 56.8031 91.111C58.8824 91.7454 61.1036 91.7454 63.1828 91.111C64.3899 91.2774 69.7992 93.0798 71.1071 110.724C71.1271 110.979 71.2428 111.217 71.4309 111.391C71.619 111.565 71.8658 111.661 72.1219 111.661H72.1992C72.4682 111.64 72.7179 111.513 72.8936 111.309C73.0694 111.104 73.1568 110.838 73.1367 110.569C72.1992 97.7509 69.0188 92.597 66.525 90.5321C66.269 90.3203 65.9988 90.1261 65.7164 89.9509C67.1417 89.0816 68.3494 87.8979 69.247 86.4903C70.1446 85.0826 70.7083 83.4883 70.8951 81.8294C71.082 80.1704 70.8869 78.4906 70.3248 76.9186C69.7628 75.3466 68.8487 73.924 67.6524 72.7595C68.3555 68.2923 69.3516 65.2595 70.4039 63.2017C70.5712 63.1185 70.7121 62.9905 70.8109 62.832C70.9098 62.6736 70.9628 62.4908 70.9641 62.304C70.9641 62.2759 70.95 62.2524 70.9477 62.2243C72.6352 59.4563 74.318 58.9618 74.932 58.8798C77.0156 59.5173 79.2422 59.5173 81.3258 58.8798C82.4039 59.0274 86.7867 60.4665 88.6711 73.2048C87.5755 74.3948 86.7576 75.813 86.2762 77.3573C85.7948 78.9015 85.662 80.5333 85.8873 82.1351C86.1126 83.7368 86.6904 85.2687 87.5791 86.6202C88.4678 87.9717 89.6452 89.1093 91.0266 89.9509C90.7446 90.1266 90.4744 90.3208 90.218 90.5321C87.7266 92.597 84.5555 97.7509 83.6063 110.569C83.5869 110.838 83.6745 111.103 83.8501 111.308C84.0257 111.513 84.275 111.639 84.5438 111.661H84.6211C84.8771 111.661 85.1235 111.564 85.3115 111.39C85.4996 111.217 85.6154 110.979 85.636 110.724C86.9485 92.9837 92.3906 91.2821 93.5742 91.1157C95.6535 91.7501 97.8747 91.7501 99.9539 91.1157C101.161 91.2821 106.57 93.0798 107.876 110.728C107.896 110.984 108.013 111.222 108.201 111.396C108.39 111.57 108.637 111.666 108.893 111.666H108.984C109.253 111.645 109.503 111.518 109.679 111.313C109.855 111.109 109.942 110.843 109.922 110.574C108.984 97.7345 105.811 92.5782 103.32 90.5228C103.063 90.3114 102.793 90.1173 102.511 89.9415C103.768 89.177 104.858 88.1675 105.717 86.9729C106.576 85.7784 107.186 84.4232 107.51 82.9881C107.835 81.5531 107.867 80.0674 107.606 78.6196C107.344 77.1718 106.794 75.7914 105.988 74.5605C105.182 73.3297 104.136 72.2736 102.914 71.4551C101.691 70.6366 100.316 70.0724 98.8713 69.7961C97.4262 69.5198 95.9403 69.5371 94.502 69.8469C93.0637 70.1567 91.7025 70.7526 90.4992 71.5993C89.8922 68.0579 89.0696 65.3649 88.1555 63.3142H109.952C110.086 63.3142 110.219 63.2878 110.343 63.2366C110.466 63.1853 110.579 63.1102 110.673 63.0155C110.768 62.9209 110.843 62.8085 110.894 62.6848C110.946 62.5611 110.972 62.4285 110.972 62.2946V9.3751C110.974 9.1055 110.87 8.84589 110.682 8.65306C110.493 8.46024 110.236 8.3499 109.966 8.34619ZM26.1235 89.0439H25.9711C25.8154 89.064 25.6668 89.1211 25.5375 89.2103C24.0248 89.6306 22.4261 89.6306 20.9133 89.2103C20.7823 89.1207 20.6323 89.0629 20.475 89.0415H20.325C18.3234 88.3552 16.6301 86.9811 15.5464 85.1637C14.4628 83.3462 14.0589 81.2033 14.4068 79.1161C14.7547 77.0288 15.8317 75.1327 17.4463 73.765C19.0608 72.3972 21.1082 71.6466 23.2242 71.6466C25.3402 71.6466 27.3876 72.3972 29.0022 73.765C30.6168 75.1327 31.6938 77.0288 32.0417 79.1161C32.3895 81.2033 31.9857 83.3462 30.902 85.1637C29.8184 86.9811 28.1251 88.3552 26.1235 89.0415V89.0439ZM39.5438 56.9954C39.4139 56.9055 39.2645 56.8476 39.1078 56.8267C39.0867 56.8267 39.0352 56.8267 38.9578 56.8267C36.9562 56.1404 35.2629 54.7663 34.1792 52.9488C33.0956 51.1314 32.6917 48.9884 33.0396 46.9012C33.3875 44.814 34.4645 42.9179 36.0791 41.5501C37.6936 40.1824 39.741 39.4317 41.8571 39.4317C43.9731 39.4317 46.0205 40.1824 47.635 41.5501C49.2496 42.9179 50.3266 44.814 50.6745 46.9012C51.0224 48.9884 50.6185 51.1314 49.5349 52.9488C48.4512 54.7663 46.7579 56.1404 44.7563 56.8267C44.6766 56.8267 44.625 56.8267 44.6039 56.8267C44.4487 56.8473 44.3007 56.9052 44.1727 56.9954C43.417 57.2005 42.6377 57.3061 41.8547 57.3095C41.0739 57.3071 40.2969 57.2015 39.5438 56.9954ZM68.9391 80.5946C68.936 82.4562 68.3525 84.2704 67.27 85.7848C66.1874 87.2992 64.6596 88.4385 62.8992 89.0439H62.7492C62.5934 89.0636 62.4447 89.1207 62.3156 89.2103C60.8021 89.6305 59.2026 89.6305 57.6891 89.2103C57.5585 89.12 57.4082 89.0621 57.2508 89.0415H57.1008C55.5478 88.5084 54.1716 87.5577 53.1234 86.2938C52.0752 85.0298 51.3955 83.5016 51.1589 81.8767C50.9223 80.2518 51.1379 78.5932 51.7821 77.0828C52.4263 75.5725 53.4742 74.2688 54.8107 73.3149C56.1472 72.361 57.7207 71.7938 59.3585 71.6754C60.9962 71.5571 62.6349 71.8923 64.0946 72.6442C65.5544 73.3961 66.7787 74.5357 67.6333 75.9378C68.4879 77.3398 68.9397 78.9503 68.9391 80.5923V80.5946ZM60 69.6095C57.932 69.6099 55.9069 70.1993 54.1617 71.3087C53.5617 67.9103 52.7555 65.304 51.8766 63.3095H68.1235C67.2399 65.304 66.4383 67.9103 65.8383 71.3087C64.0931 70.1993 62.068 69.6099 60 69.6095ZM75.832 56.9907C75.7021 56.9008 75.5527 56.8429 75.3961 56.822H75.2485C73.2458 56.1361 71.5514 54.762 70.4668 52.9442C69.3822 51.1263 68.9777 48.9826 69.3253 46.8945C69.6729 44.8064 70.7501 42.9093 72.3652 41.5409C73.9803 40.1725 76.0285 39.4214 78.1453 39.4214C80.2622 39.4214 82.3104 40.1725 83.9254 41.5409C85.5405 42.9093 86.6177 44.8064 86.9653 46.8945C87.313 48.9826 86.9085 51.1263 85.8239 52.9442C84.7393 54.762 83.0449 56.1361 81.0422 56.822C80.9649 56.822 80.9133 56.822 80.8922 56.822C80.7375 56.8432 80.5898 56.9002 80.461 56.9884C78.9466 57.4087 77.3464 57.4087 75.832 56.9884V56.9907ZM105.717 80.5946C105.714 82.4562 105.131 84.2704 104.048 85.7848C102.966 87.2992 101.438 88.4385 99.6774 89.0439H99.525C99.37 89.064 99.2221 89.1211 99.0938 89.2103C97.5802 89.6305 95.9808 89.6305 94.4672 89.2103C94.3364 89.1203 94.1863 89.0625 94.0289 89.0415H93.8789C92.3259 88.5084 90.9497 87.5577 89.9015 86.2938C88.8534 85.0298 88.1736 83.5016 87.937 81.8767C87.7004 80.2518 87.9161 78.5932 88.5603 77.0828C89.2045 75.5725 90.2523 74.2688 91.5889 73.3149C92.9254 72.361 94.4989 71.7938 96.1366 71.6754C97.7743 71.5571 99.413 71.8923 100.873 72.6442C102.332 73.3961 103.557 74.5357 104.411 75.9378C105.266 77.3398 105.718 78.9503 105.717 80.5923V80.5946ZM108.947 61.2751H87.1149C86.0203 59.4446 84.8742 58.3595 83.8664 57.722C85.9097 56.4743 87.4893 54.5931 88.3645 52.3647C89.2398 50.1364 89.3628 47.683 88.7148 45.3783C88.0668 43.0736 86.6833 41.0438 84.775 39.5981C82.8667 38.1524 80.5382 37.3699 78.1442 37.3699C75.7501 37.3699 73.4216 38.1524 71.5133 39.5981C69.6051 41.0438 68.2216 43.0736 67.5736 45.3783C66.9256 47.683 67.0486 50.1364 67.9238 52.3647C68.7991 54.5931 70.3786 56.4743 72.4219 57.722C71.4164 58.3595 70.2703 59.447 69.1758 61.2751H50.8266C49.7321 59.447 48.586 58.3595 47.5805 57.7196C49.6228 56.4719 51.2014 54.5909 52.076 52.3631C52.9505 50.1352 53.0731 47.6826 52.425 45.3787C51.7769 43.0748 50.3937 41.0458 48.4859 39.6007C46.5781 38.1555 44.2504 37.3734 41.8571 37.3734C39.4637 37.3734 37.136 38.1555 35.2282 39.6007C33.3204 41.0458 31.9372 43.0748 31.2891 45.3787C30.641 47.6826 30.7636 50.1352 31.6381 52.3631C32.5127 54.5909 34.0913 56.4719 36.1336 57.7196C35.1258 58.3595 33.9797 59.4423 32.8852 61.2728H11.0531V10.3853H108.947V61.2751Z" fill="black"/>
</g>
<defs>
<clipPath id="clip0_205_210">
<rect width="120" height="120" fill="white"/>
</clipPath>
</defs>
</svg>
