<svg width="120" height="120" viewBox="0 0 120 120" fill="none" xmlns="http://www.w3.org/2000/svg">
<path d="M92.5 47.5499C88.7503 46.2585 85.4404 43.9364 82.95 40.8499C80.2052 37.4111 76.7103 34.6456 72.7325 32.765C68.7547 30.8845 64.3995 29.9386 60 29.9999C54.0818 29.5808 48.2229 31.4061 43.59 35.1125C38.9571 38.8188 35.8902 44.1341 35 49.9999C36.7534 47.0661 39.3923 44.7643 42.537 43.4255C45.6817 42.0868 49.17 41.7802 52.5 42.5499C56.2435 43.879 59.5479 46.2146 62.05 49.2999C64.8098 52.7113 68.3114 55.4482 72.2883 57.3024C76.2653 59.1565 80.6128 60.0791 85 59.9999C90.9182 60.419 96.7771 58.5937 101.41 54.8874C106.043 51.1811 109.11 45.8657 110 39.9999C108.278 42.9688 105.648 45.3054 102.497 46.6649C99.3457 48.0244 95.841 48.3347 92.5 47.5499ZM27.5 72.4499C31.2497 73.7414 34.5596 76.0635 37.05 79.1499C39.7948 82.5888 43.2897 85.3542 47.2675 87.2348C51.2453 89.1154 55.6005 90.0612 60 89.9999C65.9182 90.419 71.7771 88.5937 76.41 84.8874C81.0429 81.1811 84.1098 75.8657 85 69.9999C83.2466 72.9337 80.6077 75.2356 77.463 76.5743C74.3183 77.9131 70.83 78.2196 67.5 77.4499C63.7565 76.1209 60.4521 73.7853 57.95 70.6999C55.1828 67.297 51.6798 64.5661 47.7045 62.7127C43.7293 60.8594 39.3855 59.9318 35 59.9999C29.0818 59.5808 23.2229 61.4061 18.59 65.1125C13.9571 68.8188 10.8902 74.1341 10 79.9999C11.7215 77.0311 14.352 74.6944 17.5032 73.3349C20.6543 71.9754 24.159 71.6652 27.5 72.4499Z" fill="black"/>
</svg>
