<svg width="120" height="120" viewBox="0 0 120 120" fill="none" xmlns="http://www.w3.org/2000/svg">
<g clip-path="url(#clip0_205_216)">
<path d="M88.2024 9.65161C77.7821 9.65161 69.3071 16.1766 69.3071 24.1993C69.329 26.8231 70.2062 29.3683 71.8055 31.4485L68.7704 36.6915C68.6619 36.8776 68.6096 37.0911 68.6198 37.3063C68.63 37.5215 68.7023 37.7291 68.828 37.9041C68.9536 38.0791 69.1273 38.2139 69.3279 38.2924C69.5286 38.3708 69.7476 38.3895 69.9586 38.3461L78.3961 36.6422C81.4734 38.0503 84.8207 38.7702 88.2047 38.7516C98.6227 38.7516 107.1 32.2243 107.1 24.204C107.1 16.1836 98.6204 9.65161 88.2024 9.65161ZM88.2024 36.511C85.0294 36.5345 81.8926 35.8364 79.0289 34.4696C78.8764 34.3952 78.7088 34.3567 78.5391 34.3571C78.4605 34.3564 78.382 34.3634 78.3047 34.3782L71.9532 35.6649L74.1258 31.9149C74.241 31.7166 74.2925 31.4877 74.2732 31.2592C74.2539 31.0307 74.1648 30.8137 74.018 30.6375C72.4008 28.704 71.5477 26.4774 71.5477 24.2016C71.5477 17.4047 79.0219 11.8875 88.2094 11.8875C97.3969 11.8875 104.869 17.4118 104.869 24.2016C104.869 30.9915 97.3875 36.511 88.2024 36.511Z" fill="black"/>
<path d="M97.2305 20.0554H79.1836C78.8871 20.0554 78.6028 20.1732 78.3931 20.3829C78.1835 20.5925 78.0657 20.8769 78.0657 21.1734C78.0657 21.4699 78.1835 21.7543 78.3931 21.9639C78.6028 22.1736 78.8871 22.2914 79.1836 22.2914H97.2305C97.527 22.2914 97.8114 22.1736 98.021 21.9639C98.2307 21.7543 98.3485 21.4699 98.3485 21.1734C98.3485 20.8769 98.2307 20.5925 98.021 20.3829C97.8114 20.1732 97.527 20.0554 97.2305 20.0554Z" fill="black"/>
<path d="M97.2305 26.1071H94.9969C94.8459 26.1002 94.6951 26.124 94.5536 26.177C94.4121 26.23 94.2828 26.3111 94.1735 26.4155C94.0642 26.5199 93.9773 26.6454 93.9178 26.7843C93.8584 26.9233 93.8278 27.0728 93.8278 27.2239C93.8278 27.375 93.8584 27.5246 93.9178 27.6636C93.9773 27.8025 94.0642 27.928 94.1735 28.0323C94.2828 28.1367 94.4121 28.2179 94.5536 28.2709C94.6951 28.3239 94.8459 28.3476 94.9969 28.3407H97.2305C97.5178 28.3276 97.789 28.2041 97.9877 27.9961C98.1864 27.7881 98.2973 27.5116 98.2973 27.2239C98.2973 26.9363 98.1864 26.6597 97.9877 26.4517C97.789 26.2437 97.5178 26.1203 97.2305 26.1071Z" fill="black"/>
<path d="M89.5969 26.1071H79.1743C79.0233 26.1002 78.8725 26.124 78.731 26.177C78.5895 26.23 78.4602 26.3111 78.3509 26.4155C78.2416 26.5199 78.1546 26.6454 78.0952 26.7843C78.0358 26.9233 78.0051 27.0728 78.0051 27.2239C78.0051 27.375 78.0358 27.5246 78.0952 27.6636C78.1546 27.8025 78.2416 27.928 78.3509 28.0323C78.4602 28.1367 78.5895 28.2179 78.731 28.2709C78.8725 28.3239 79.0233 28.3476 79.1743 28.3407H89.5969C89.7479 28.3476 89.8987 28.3239 90.0402 28.2709C90.1817 28.2179 90.311 28.1367 90.4203 28.0323C90.5296 27.928 90.6166 27.8025 90.676 27.6636C90.7354 27.5246 90.7661 27.375 90.7661 27.2239C90.7661 27.0728 90.7354 26.9233 90.676 26.7843C90.6166 26.6454 90.5296 26.5199 90.4203 26.4155C90.311 26.3111 90.1817 26.23 90.0402 26.177C89.8987 26.124 89.7479 26.1002 89.5969 26.1071Z" fill="black"/>
<path d="M39.8696 58.6359C40.1657 58.6352 40.4494 58.5172 40.6586 58.3076C40.8677 58.098 40.9852 57.814 40.9852 57.5179V51.5788C40.9889 48.554 42.1922 45.6542 44.331 43.5153C46.4699 41.3764 49.3697 40.1732 52.3946 40.1694H56.0649C59.0897 40.1732 61.9895 41.3764 64.1284 43.5153C66.2673 45.6542 67.4705 48.554 67.4742 51.5788V57.5179C67.4673 57.6688 67.4911 57.8196 67.5441 57.9612C67.5971 58.1027 67.6782 58.232 67.7826 58.3413C67.887 58.4506 68.0125 58.5375 68.1514 58.597C68.2904 58.6564 68.4399 58.687 68.591 58.687C68.7422 58.687 68.8917 58.6564 69.0307 58.597C69.1696 58.5375 69.2951 58.4506 69.3995 58.3413C69.5038 58.232 69.585 58.1027 69.638 57.9612C69.691 57.8196 69.7148 57.6688 69.7078 57.5179V51.5788C69.7042 48.6194 68.7396 45.7412 66.9593 43.3772C65.179 41.0132 62.6792 39.2912 59.836 38.4702C61.6449 37.2666 63.0185 35.5126 63.7535 33.4679C64.4884 31.4231 64.5458 29.1961 63.9171 27.1162C63.2884 25.0363 62.0069 23.214 60.2623 21.9188C58.5177 20.6236 56.4026 19.9243 54.2297 19.9243C52.0569 19.9243 49.9417 20.6236 48.1971 21.9188C46.4525 23.214 45.1711 25.0363 44.5423 27.1162C43.9136 29.1961 43.971 31.4231 44.706 33.4679C45.4409 35.5126 46.8145 37.2666 48.6235 38.4702C45.7804 39.2915 43.2808 41.0136 41.5006 43.3776C39.7203 45.7415 38.7556 48.6195 38.7516 51.5788V57.5179C38.7516 57.6647 38.7805 57.8101 38.8367 57.9457C38.8929 58.0813 38.9752 58.2046 39.079 58.3084C39.1828 58.4122 39.3061 58.4946 39.4417 58.5508C39.5774 58.6069 39.7227 58.6359 39.8696 58.6359ZM46.3453 30.0421C46.3453 28.4827 46.8077 26.9584 47.6741 25.6618C48.5404 24.3652 49.7718 23.3546 51.2125 22.7579C52.6532 22.1611 54.2385 22.005 55.7679 22.3092C57.2973 22.6134 58.7022 23.3644 59.8048 24.467C60.9075 25.5697 61.6584 26.9745 61.9626 28.5039C62.2668 30.0334 62.1107 31.6186 61.5139 33.0593C60.9172 34.5 59.9066 35.7314 58.61 36.5977C57.3135 37.4641 55.7891 37.9265 54.2297 37.9265C52.1412 37.9234 50.139 37.093 48.6613 35.6171C47.1837 34.1412 46.3509 32.14 46.3453 30.0515V30.0421Z" fill="black"/>
<path d="M45.5531 49.636V57.5181C45.5531 57.8146 45.6709 58.0989 45.8805 58.3086C46.0902 58.5183 46.3746 58.636 46.6711 58.636C46.9676 58.636 47.2519 58.5183 47.4616 58.3086C47.6713 58.0989 47.789 57.8146 47.789 57.5181V49.636C47.789 49.3395 47.6713 49.0552 47.4616 48.8455C47.2519 48.6359 46.9676 48.5181 46.6711 48.5181C46.3746 48.5181 46.0902 48.6359 45.8805 48.8455C45.6709 49.0552 45.5531 49.3395 45.5531 49.636Z" fill="black"/>
<path d="M62.9062 57.5181V49.636C62.9062 49.3395 62.7884 49.0552 62.5788 48.8455C62.3691 48.6359 62.0848 48.5181 61.7883 48.5181C61.4918 48.5181 61.2074 48.6359 60.9977 48.8455C60.7881 49.0552 60.6703 49.3395 60.6703 49.636V57.5181C60.6703 57.8146 60.7881 58.0989 60.9977 58.3086C61.2074 58.5183 61.4918 58.636 61.7883 58.636C62.0848 58.636 62.3691 58.5183 62.5788 58.3086C62.7884 58.0989 62.9062 57.8146 62.9062 57.5181Z" fill="black"/>
<path d="M85.6031 95.4517C87.0978 94.4684 88.2355 93.0293 88.8472 91.348C89.459 89.6668 89.5122 87.8331 88.999 86.1192C88.4858 84.4053 87.4335 82.9026 85.9984 81.8343C84.5633 80.766 82.8219 80.189 81.0328 80.189C79.2438 80.189 77.5024 80.766 76.0673 81.8343C74.6322 82.9026 73.5799 84.4053 73.0667 86.1192C72.5535 87.8331 72.6067 89.6668 73.2185 91.348C73.8302 93.0293 74.9679 94.4684 76.4625 95.4517C74.4903 96.1106 72.6818 97.1834 71.1579 98.5982C69.634 100.013 68.43 101.737 67.6266 103.655C66.823 101.737 65.6187 100.012 64.0944 98.5976C62.5701 97.1828 60.761 96.1102 58.7883 95.4517C60.2829 94.4684 61.4206 93.0293 62.0324 91.348C62.6441 89.6668 62.6973 87.8331 62.1841 86.1192C61.6709 84.4053 60.6186 82.9026 59.1835 81.8343C57.7485 80.766 56.0071 80.189 54.218 80.189C52.4289 80.189 50.6875 80.766 49.2524 81.8343C47.8173 82.9026 46.7651 84.4053 46.2519 86.1192C45.7386 87.8331 45.7919 89.6668 46.4036 91.348C47.0154 93.0293 48.153 94.4684 49.6477 95.4517C47.6748 96.1098 45.8655 97.1823 44.3411 98.5971C42.8167 100.012 41.6126 101.736 40.8094 103.655C40.0067 101.736 38.803 100.012 37.279 98.5971C35.7551 97.1823 33.9461 96.1098 31.9735 95.4517C33.4681 94.4684 34.6058 93.0293 35.2175 91.348C35.8293 89.6668 35.8825 87.8331 35.3693 86.1192C34.8561 84.4053 33.8038 82.9026 32.3687 81.8343C30.9336 80.766 29.1922 80.189 27.4031 80.189C25.6141 80.189 23.8727 80.766 22.4376 81.8343C21.0025 82.9026 19.9502 84.4053 19.437 86.1192C18.9238 87.8331 18.977 89.6668 19.5888 91.348C20.2005 93.0293 21.3382 94.4684 22.8328 95.4517C19.9364 96.4124 17.416 98.2607 15.6289 100.734C13.8419 103.208 12.8789 106.181 12.8766 109.233C12.8766 109.529 12.9944 109.814 13.204 110.023C13.4137 110.233 13.6981 110.351 13.9946 110.351C14.2911 110.351 14.5754 110.233 14.7851 110.023C14.9947 109.814 15.1125 109.529 15.1125 109.233C15.1125 107.62 15.4303 106.022 16.0477 104.531C16.6652 103.041 17.5701 101.686 18.711 100.545C19.8518 99.4046 21.2062 98.4996 22.6968 97.8822C24.1874 97.2648 25.7851 96.947 27.3985 96.947C29.0119 96.947 30.6095 97.2648 32.1001 97.8822C33.5907 98.4996 34.9451 99.4046 36.0859 100.545C37.2268 101.686 38.1318 103.041 38.7492 104.531C39.3666 106.022 39.6844 107.62 39.6844 109.233C39.6976 109.52 39.821 109.791 40.029 109.99C40.237 110.189 40.5136 110.3 40.8012 110.3C41.0888 110.3 41.3654 110.189 41.5734 109.99C41.7814 109.791 41.9048 109.52 41.918 109.233C41.918 105.974 43.2124 102.85 45.5165 100.545C47.8205 98.2414 50.9455 96.947 54.2039 96.947C57.4624 96.947 60.5873 98.2414 62.8914 100.545C65.1955 102.85 66.4899 105.974 66.4899 109.233C66.4899 109.529 66.6077 109.814 66.8173 110.023C67.027 110.233 67.3113 110.351 67.6078 110.351C67.9043 110.351 68.1887 110.233 68.3984 110.023C68.608 109.814 68.7258 109.529 68.7258 109.233C68.7033 107.605 69.0045 105.99 69.6118 104.479C70.219 102.969 71.1203 101.595 72.2633 100.436C73.4063 99.2771 74.7682 98.3569 76.2698 97.7288C77.7714 97.1007 79.3829 96.7773 81.0106 96.7773C82.6383 96.7773 84.2497 97.1007 85.7514 97.7288C87.253 98.3569 88.6149 99.2771 89.7578 100.436C90.9008 101.595 91.8021 102.969 92.4094 104.479C93.0167 105.99 93.3178 107.605 93.2953 109.233C93.2953 109.529 93.4131 109.814 93.6228 110.023C93.8324 110.233 94.1168 110.351 94.4133 110.351C94.7098 110.351 94.9942 110.233 95.2038 110.023C95.4135 109.814 95.5313 109.529 95.5313 109.233C95.5309 106.185 94.5721 103.214 92.7904 100.741C91.0086 98.2675 88.4943 96.4172 85.6031 95.4517ZM27.4219 94.5868C26.2194 94.5845 25.0446 94.2258 24.0459 93.556C23.0472 92.8862 22.2694 91.9353 21.811 90.8236C21.3525 89.712 21.2339 88.4893 21.4701 87.3102C21.7062 86.1311 22.2867 85.0485 23.1379 84.1992C23.9892 83.3499 25.0732 82.772 26.2528 82.5385C27.4324 82.305 28.6548 82.4265 29.7654 82.8875C30.8761 83.3486 31.8251 84.1285 32.4926 85.1287C33.1601 86.129 33.5161 87.3046 33.5156 88.5071C33.5119 90.1209 32.8683 91.6672 31.7259 92.807C30.5835 93.9467 29.0356 94.5868 27.4219 94.5868ZM54.2274 94.5868C53.0244 94.5868 51.8484 94.2301 50.8481 93.5617C49.8479 92.8933 49.0683 91.9432 48.6081 90.8317C48.1478 89.7203 48.0275 88.4973 48.2624 87.3174C48.4972 86.1375 49.0767 85.0538 49.9276 84.2033C50.7784 83.3528 51.8623 82.7737 53.0423 82.5393C54.2222 82.3049 55.4452 82.4257 56.5565 82.8864C57.6678 83.3471 58.6175 84.127 59.2855 85.1275C59.9536 86.128 60.3099 87.3041 60.3094 88.5071C60.3057 90.1184 59.664 91.6627 58.5246 92.802C57.3852 93.9414 55.841 94.5831 54.2297 94.5868H54.2274ZM81.0328 94.5868C79.8298 94.5868 78.6538 94.2301 77.6536 93.5617C76.6534 92.8933 75.8738 91.9432 75.4135 90.8317C74.9533 89.7203 74.833 88.4973 75.0678 87.3174C75.3027 86.1375 75.8822 85.0538 76.733 84.2033C77.5838 83.3528 78.6678 82.7737 79.8477 82.5393C81.0277 82.3049 82.2506 82.4257 83.3619 82.8864C84.4733 83.3471 85.423 84.127 86.091 85.1275C86.759 86.128 87.1153 87.3041 87.1149 88.5071C87.1112 90.1184 86.4694 91.6627 85.3301 92.802C84.1907 93.9414 82.6465 94.5831 81.0352 94.5868H81.0328Z" fill="black"/>
<path d="M40.8258 82.0524C42.2744 82.0548 43.6912 81.6273 44.8968 80.8242C46.1024 80.021 47.0427 78.8783 47.5987 77.5406C48.1546 76.203 48.3013 74.7304 48.0201 73.3093C47.7389 71.8882 47.0425 70.5825 46.019 69.5574C44.9955 68.5322 43.6909 67.8337 42.2702 67.5502C40.8496 67.2668 39.3768 67.4111 38.0383 67.9649C36.6997 68.5187 35.5555 69.4572 34.7504 70.6615C33.9453 71.8659 33.5156 73.2819 33.5156 74.7306C33.5181 76.6697 34.2887 78.5288 35.6587 79.901C37.0288 81.2733 38.8867 82.0469 40.8258 82.0524ZM40.8258 69.6423C41.8322 69.6418 42.8162 69.9398 43.6533 70.4987C44.4904 71.0575 45.1429 71.852 45.5284 72.7817C45.9139 73.7115 46.015 74.7346 45.8189 75.7218C45.6229 76.709 45.1384 77.6158 44.4269 78.3277C43.7154 79.0395 42.8088 79.5244 41.8217 79.7209C40.8346 79.9174 39.8114 79.8168 38.8815 79.4317C37.9516 79.0467 37.1567 78.3945 36.5975 77.5577C36.0383 76.7209 35.7398 75.737 35.7398 74.7306C35.7417 73.382 36.2781 72.0893 37.2314 71.1355C38.1847 70.1817 39.4773 69.6448 40.8258 69.6423Z" fill="black"/>
<path d="M67.6336 82.0524C69.0818 82.0524 70.4974 81.623 71.7015 80.8185C72.9055 80.0139 73.844 78.8704 74.3982 77.5325C74.9524 76.1946 75.0974 74.7224 74.8148 73.3021C74.5323 71.8818 73.835 70.5772 72.811 69.5532C71.787 68.5292 70.4824 67.8319 69.0621 67.5494C67.6418 67.2669 66.1696 67.4119 64.8317 67.966C63.4938 68.5202 62.3503 69.4587 61.5457 70.6628C60.7412 71.8668 60.3118 73.2824 60.3118 74.7306C60.3142 76.6717 61.0865 78.5326 62.459 79.9052C63.8316 81.2778 65.6925 82.05 67.6336 82.0524ZM67.6336 69.6423C68.64 69.6423 69.6238 69.9407 70.4605 70.4998C71.2973 71.0589 71.9495 71.8536 72.3346 72.7834C72.7197 73.7131 72.8205 74.7362 72.6242 75.7232C72.4278 76.7103 71.9432 77.6169 71.2316 78.3285C70.52 79.0401 69.6134 79.5248 68.6263 79.7211C67.6393 79.9174 66.6162 79.8166 65.6864 79.4315C64.7567 79.0464 63.962 78.3942 63.4029 77.5575C62.8438 76.7207 62.5454 75.7369 62.5454 74.7306C62.5472 73.3816 63.0839 72.0885 64.0377 71.1347C64.9916 70.1808 66.2847 69.6442 67.6336 69.6423Z" fill="black"/>
</g>
<defs>
<clipPath id="clip0_205_216">
<rect width="120" height="120" fill="white"/>
</clipPath>
</defs>
</svg>
